<?xml version="1.0" encoding="UTF-8" standalone="no"?>
<svg width="241px" height="170px" viewBox="0 0 241 170" version="1.1" xmlns="http://www.w3.org/2000/svg" xmlns:xlink="http://www.w3.org/1999/xlink" xmlns:sketch="http://www.bohemiancoding.com/sketch/ns">
    <!-- Generator: Sketch Beta 3.4 (14718) - http://www.bohemiancoding.com/sketch -->
    <title>21cc-logo-white</title>
    <desc>Created with Sketch Beta.</desc>
    <defs>
        <path id="path-1" d="M0.567333333,39.8143529 L36.8802745,39.8143529 L36.8802745,0.686392157 L0.567333333,0.686392157 L0.567333333,39.8143529 Z"></path>
        <path id="path-3" d="M0,22.3217255 L162.352941,22.3217255 L162.352941,0.151529412 L0,0.151529412"></path>
    </defs>
    <g id="Assets" stroke="none" stroke-width="1" fill="none" fill-rule="evenodd" sketch:type="MSPage">
        <g id="Page-1" sketch:type="MSLayerGroup" transform="translate(-0.500000, 0.000000)">
            <g id="Group-4" transform="translate(102.137255, 39.000000)">
                <mask id="mask-2" sketch:name="Clip 2" fill="white">
                    <use xlink:href="#path-1"></use>
                </mask>
                <g id="Clip-2"></g>
                <path d="M19.3172941,8.95286275 L19.3172941,8.6687451 C22.5363922,7.6152549 25.4425098,7.80015686 28.0672157,8.29623529 L26.7647843,4.60360784 L27.9869412,5.25662745 L29.7782353,9.73937255 C27.3871373,8.83741176 22.3605098,8.83741176 19.3172941,8.95286275 L19.3172941,8.95286275 Z M18.0888235,8.95286275 C15.1763922,8.83741176 10.1488627,8.83741176 7.62968627,9.73937255 L9.42007843,5.25662745 L10.6413333,4.60360784 L9.34431373,8.29623529 C11.9708235,7.80015686 14.8760392,7.6152549 18.0960392,8.6687451 L18.0888235,8.95286275 L18.0888235,8.95286275 Z M28.8663529,4.68207843 C28.8374902,4.62705882 27.1021176,3.76839216 27.1021176,3.76839216 C24.8968235,3.30478431 21.2628235,3.50862745 18.7283137,4.44035294 L18.7192941,4.44035294 C16.1829804,3.50862745 12.5525882,3.30478431 10.3463922,3.76839216 C10.3463922,3.76839216 8.61101961,4.62705882 8.58486275,4.68207843 L5.89611765,10.6133725 C5.80862745,10.7793333 5.94662745,10.9200392 6.09905882,10.8893725 C10.1849412,10.1127843 14.8787451,9.87376471 18.722,9.87376471 L18.7256078,9.87376471 C22.5688627,9.87376471 27.2617647,10.1127843 31.3467451,10.8893725 C31.5009804,10.9200392 31.6371765,10.7793333 31.5505882,10.6133725 L28.8663529,4.68207843 L28.8663529,4.68207843 Z" id="Fill-1" fill="#FFFFFF" sketch:type="MSShapeGroup" mask="url(#mask-2)"></path>
                <path d="M35.6914902,7.37533333 C35.6914902,9.31094118 35.5742353,11.1356078 35.3640784,12.8637647 C24.4656863,10.5619608 12.9990588,10.5619608 2.08533333,12.8691765 C1.87427451,11.1383137 1.75701961,9.31184314 1.75701961,7.37533333 L1.75521569,4.42862745 C1.75521569,4.02905882 2.03031373,3.69533333 2.40282353,3.60243137 L2.42266667,3.59611765 C7.67929412,2.47137255 13.132549,1.87427451 18.722902,1.87427451 C24.3087451,1.87427451 29.7538824,2.47047059 35.0023922,3.59160784 L35.0150196,3.59611765 C35.4037647,3.6754902 35.6932941,4.01823529 35.6932941,4.42862745 L35.6914902,7.37533333 L35.6914902,7.37533333 Z M19.4652157,16.1189412 L19.4652157,12.7843922 C20.5132941,12.7934118 21.5604706,12.8204706 22.6049412,12.8718824 L22.6049412,18.2105882 L19.4652157,16.1189412 L19.4652157,16.1189412 Z M32.0358431,24.4873333 C32.0331373,24.4909412 32.0304314,24.4981569 32.0277255,24.5026667 C31.0842745,26.4563137 30.0163529,28.1898824 28.8925098,29.7096863 C28.8898039,29.7123922 28.8898039,29.7132941 28.888902,29.7132941 C27.8660784,31.096902 26.8044706,32.3127451 25.7473725,33.3617255 L25.7473725,27.6162353 L22.6049412,25.5245882 L22.6049412,36.0928627 C21.436902,36.9740784 20.3608627,37.6541569 19.4652157,38.1484314 L19.4652157,23.4329412 L22.6049412,25.5245882 L22.6049412,18.2114902 L25.7473725,20.3013333 L25.7473725,13.0901569 C26.7981569,13.1830588 27.8462353,13.2912941 28.888902,13.4256863 L28.888902,22.3920784 L32.0277255,24.4819216 L32.0277255,13.9001176 C33.0316078,14.0714902 34.0327843,14.2545882 35.0276471,14.4647451 L35.1349804,14.4881961 C34.5126275,18.3359608 33.4059216,21.6479608 32.0358431,24.4873333 L32.0358431,24.4873333 Z M17.9832941,38.1484314 C13.5411373,35.696902 4.61984314,28.7445882 2.31443137,14.4918039 L2.42266667,14.4692549 C7.50070588,13.3968235 12.7329804,12.834 17.9832941,12.7843922 L17.9832941,38.1484314 L17.9832941,38.1484314 Z M35.3857255,2.46505882 L35.3676863,2.45784314 L35.2531373,2.43168627 C29.8422745,1.27356863 24.2816863,0.687294118 18.722902,0.687294118 C13.1632157,0.687294118 7.5945098,1.27537255 2.17462745,2.43529412 L2.12141176,2.44611765 L2.07090196,2.46235294 C1.20321569,2.67611765 0.566431373,3.48968627 0.566431373,4.42952941 L0.568235294,7.37533333 C0.568235294,28.6174118 13.7125098,37.2347451 17.7415686,39.3696863 C18.0635686,39.5410588 18.3972941,39.628549 18.7292157,39.628549 C19.0629412,39.628549 19.3939608,39.5410588 19.7141569,39.3669804 C23.7323922,37.237451 36.8793725,28.6174118 36.8793725,7.37533333 L36.8793725,4.42952941 C36.8793725,3.51223529 36.2606275,2.70588235 35.3857255,2.46505882 L35.3857255,2.46505882 Z" id="Fill-3" fill="#FFFFFF" sketch:type="MSShapeGroup" mask="url(#mask-2)"></path>
            </g>
            <path d="M131.026157,61.3911765 L127.884627,59.3004314 L127.884627,66.6144314 L131.026157,68.7051765 L131.026157,61.3911765" id="Fill-5" fill="#FFFFFF" sketch:type="MSShapeGroup"></path>
            <path d="M108.394157,60.6127843 L110.410941,60.6127843 C110.444314,61.2621961 110.559765,61.8538824 110.729333,62.3878431 C110.087137,62.5330588 109.555882,62.712549 109.130157,62.8848235 C108.714353,62.2137647 108.452784,61.4425882 108.394157,60.6127843 L108.394157,60.6127843 Z M109.130157,57.6164706 C109.555882,57.7887451 110.087137,57.9673333 110.731137,58.112549 C110.559765,58.6456078 110.444314,59.24 110.410941,59.8885098 L108.394157,59.8885098 C108.452784,59.0587059 108.715255,58.2866275 109.130157,57.6164706 L109.130157,57.6164706 Z M112.359176,55.3363137 C111.915412,55.8161569 111.385961,56.5142745 110.98549,57.4261569 C110.431686,57.3061961 109.954549,57.1573725 109.566706,57.0103529 C110.275647,56.1742353 111.248863,55.5717255 112.359176,55.3363137 L112.359176,55.3363137 Z M113.036549,57.6660784 C112.570235,57.652549 112.13549,57.6146667 111.733216,57.5569412 C112.131882,56.7190196 112.646,56.0849412 113.036549,55.6817647 L113.036549,57.6660784 L113.036549,57.6660784 Z M113.036549,59.8885098 L111.137922,59.8885098 C111.172196,59.2887059 111.287647,58.7412157 111.455412,58.2487451 C111.936157,58.3254118 112.464706,58.3759216 113.036549,58.3921569 L113.036549,59.8885098 L113.036549,59.8885098 Z M113.036549,62.1082353 C112.464706,62.1253725 111.936157,62.1731765 111.455412,62.2498431 C111.287647,61.7591765 111.172196,61.2125882 111.137922,60.6127843 L113.036549,60.6127843 L113.036549,62.1082353 L113.036549,62.1082353 Z M113.036549,64.8195294 C112.646,64.414549 112.131882,63.7822745 111.733216,62.9443529 C112.13549,62.8875294 112.570235,62.8496471 113.036549,62.8352157 L113.036549,64.8195294 L113.036549,64.8195294 Z M109.565804,63.4900392 C109.954549,63.3430196 110.431686,63.195098 110.98549,63.0751373 C111.385961,63.9861176 111.915412,64.6860392 112.359176,65.1649804 C111.247961,64.9295686 110.274745,64.3270588 109.565804,63.4900392 L109.565804,63.4900392 Z M113.761725,62.8352157 C114.231647,62.8496471 114.667294,62.8875294 115.070471,62.9452549 C114.670902,63.7885882 114.153176,64.4226667 113.761725,64.8231373 L113.761725,62.8352157 L113.761725,62.8352157 Z M113.761725,60.6127843 L115.667569,60.6127843 C115.63149,61.2125882 115.516941,61.7591765 115.349176,62.2516471 C114.867529,62.1731765 114.335373,62.1253725 113.761725,62.1082353 L113.761725,60.6127843 L113.761725,60.6127843 Z M113.761725,58.3921569 C114.335373,58.3759216 114.868431,58.3254118 115.352784,58.2487451 C115.516941,58.7403137 115.63149,59.2878039 115.667569,59.8885098 L113.761725,59.8885098 L113.761725,58.3921569 L113.761725,58.3921569 Z M113.761725,55.6736471 C114.154078,56.0759216 114.673608,56.710902 115.07498,57.5560392 C114.67,57.6146667 114.232549,57.652549 113.761725,57.6660784 L113.761725,55.6736471 L113.761725,55.6736471 Z M117.235176,57.0112549 C116.846431,57.1591765 116.372,57.3061961 115.818196,57.4261569 C115.418627,56.5151765 114.890078,55.8179608 114.447216,55.3381176 C115.554824,55.5735294 116.528039,56.1760392 117.235176,57.0112549 L117.235176,57.0112549 Z M117.670824,57.6164706 C118.086627,58.2875294 118.347294,59.0587059 118.407725,59.8885098 L116.393647,59.8885098 C116.360275,59.24 116.243922,58.6456078 116.074353,58.112549 C116.715647,57.9673333 117.245098,57.7887451 117.670824,57.6164706 L117.670824,57.6164706 Z M117.670824,62.8848235 C117.245098,62.712549 116.712941,62.5330588 116.074353,62.3887451 C116.243922,61.8538824 116.360275,61.263098 116.393647,60.6127843 L118.407725,60.6127843 C118.347294,61.4425882 118.086627,62.2137647 117.670824,62.8848235 L117.670824,62.8848235 Z M114.447216,65.1631765 C114.890078,64.6842353 115.418627,63.9852157 115.818196,63.0760392 C116.372,63.195098 116.846431,63.3430196 117.235176,63.4900392 C116.528039,64.3261569 115.554824,64.9277647 114.447216,65.1631765 L114.447216,65.1631765 Z M113.400039,65.9992941 C116.570431,65.9992941 119.150039,63.4214902 119.150039,60.251098 C119.150039,57.0807059 116.570431,54.501098 113.400039,54.501098 C110.231451,54.501098 107.651843,57.0807059 107.651843,60.251098 C107.651843,63.4214902 110.231451,65.9992941 113.400039,65.9992941 L113.400039,65.9992941 Z" id="Fill-6" fill="#FFFFFF" sketch:type="MSShapeGroup"></path>
            <path d="M43.6432941,88.2272157 C43.6432941,85.3779216 43.3880392,85.0703529 41.8727451,84.9413725 L41.2323529,84.8908627 C41.0781176,84.7880392 41.1295294,84.3262353 41.2837647,84.2495686 C42.771098,84.3000784 43.6432941,84.3262353 44.7211373,84.3262353 C45.7484706,84.3262353 46.6206667,84.3000784 47.647098,84.2495686 C47.8004314,84.3262353 47.8518431,84.7880392 47.6985098,84.8908627 L47.3133725,84.9413725 C45.7998824,85.1479216 45.7484706,85.505098 45.7484706,88.2272157 L45.7484706,97.7474118 C45.7484706,99.7732157 45.6447451,101.543765 45.1585882,102.723529 C44.3107451,104.778196 42.4896863,106.419765 40.1021961,106.419765 C39.7955294,106.419765 39,106.393608 39,105.880392 C39,105.443843 39.3833333,104.698824 39.9227059,104.698824 C40.2311765,104.698824 40.5396471,104.749333 40.8733725,104.853961 C41.2323529,104.955882 41.5913333,105.033451 41.9503137,105.033451 C42.4896863,105.033451 42.7981569,104.72498 42.9776471,104.366 C43.5675294,103.159176 43.6432941,99.3114118 43.6432941,97.925098 L43.6432941,88.2272157" id="Fill-7" fill="#FFFFFF" sketch:type="MSShapeGroup"></path>
            <path d="M60.6975686,94.7240392 C60.6975686,91.1531765 59.1182353,87.299098 54.9836471,87.299098 C52.731451,87.299098 49.81,88.8369412 49.81,93.5776471 C49.81,96.7796078 51.3685882,100.937647 55.6321569,100.937647 C58.2307059,100.937647 60.6975686,98.9894118 60.6975686,94.7240392 M47.6443922,94.269451 C47.6443922,89.9409412 50.8923529,86.6280392 55.3507451,86.6280392 C60.3512157,86.6280392 62.8622745,90.243098 62.8622745,94.0529804 C62.8622745,98.4256863 59.5286275,101.606902 55.3507451,101.606902 C50.546,101.606902 47.6443922,98.1659216 47.6443922,94.269451" id="Fill-8" fill="#FFFFFF" sketch:type="MSShapeGroup"></path>
            <path d="M67.7797647,94.269451 C66.7407059,94.269451 66.6974118,94.3136471 66.6974118,94.9639608 L66.6974118,98.0143922 C66.6974118,100.287333 66.8056471,100.590392 68.0178824,100.720275 L68.6447451,100.786118 C68.7755294,100.871804 68.7313333,101.261451 68.6023529,101.326392 C67.4325098,101.282196 66.6974118,101.261451 65.8522745,101.261451 C64.9223529,101.261451 64.1863529,101.305647 63.3421176,101.326392 C63.2122353,101.261451 63.1698431,100.914196 63.2979216,100.786118 L63.6659216,100.720275 C64.8781569,100.503804 64.9223529,100.287333 64.9223529,98.0143922 L64.9223529,90.221451 C64.9223529,87.9485098 64.7708235,87.5814118 63.6451765,87.4939216 L63.081451,87.4506275 C62.9515686,87.3640392 62.9957647,86.9743922 63.1256471,86.909451 C64.1863529,86.9301961 64.9223529,86.9743922 65.8522745,86.9743922 C66.6974118,86.9743922 67.4325098,86.9536471 68.3633333,86.909451 C68.4932157,86.9743922 68.5374118,87.3640392 68.4066275,87.4506275 L67.9953333,87.4939216 C66.7407059,87.6238039 66.6974118,87.9485098 66.6974118,90.221451 L66.6974118,92.7117647 C66.6974118,93.3819216 66.7407059,93.4044706 67.7797647,93.4044706 L73.9708235,93.4044706 C75.0098824,93.4044706 75.0540784,93.3819216 75.0540784,92.7117647 L75.0540784,90.221451 C75.0540784,87.9485098 75.0098824,87.6238039 73.7327059,87.4939216 L73.3223137,87.4506275 C73.1915294,87.3640392 73.2339216,86.9743922 73.3647059,86.909451 C74.3595686,86.9536471 75.0964706,86.9743922 75.984,86.9743922 C76.8282353,86.9743922 77.5642353,86.9536471 78.5383529,86.909451 C78.6664314,86.9743922 78.7106275,87.3640392 78.582549,87.4506275 L78.1261569,87.4939216 C76.8724314,87.6238039 76.8282353,87.9485098 76.8282353,90.221451 L76.8282353,98.0143922 C76.8282353,100.287333 76.8724314,100.568745 78.1261569,100.720275 L78.6456863,100.786118 C78.7755686,100.871804 78.7322745,101.261451 78.6014902,101.326392 C77.5642353,101.282196 76.8282353,101.261451 75.984,101.261451 C75.0964706,101.261451 74.3180784,101.282196 73.3647059,101.326392 C73.2339216,101.261451 73.1915294,100.914196 73.3223137,100.786118 L73.7327059,100.720275 C75.0540784,100.503804 75.0540784,100.287333 75.0540784,98.0143922 L75.0540784,94.9639608 C75.0540784,94.3136471 75.0098824,94.269451 73.9708235,94.269451 L67.7797647,94.269451" id="Fill-9" fill="#FFFFFF" sketch:type="MSShapeGroup"></path>
            <path d="M93.4333333,97.581451 C93.4333333,98.2317647 93.4333333,100.806863 93.4964706,101.368784 C93.4540784,101.499569 93.3241961,101.606902 93.0860784,101.606902 C92.8272157,101.240706 92.198549,100.483059 90.3152549,98.339098 L85.2931373,92.6242745 C84.7095686,91.9532157 83.2366667,90.1781569 82.7820784,89.7037255 L82.7405882,89.7037255 C82.6521961,89.9625882 82.630549,90.4595686 82.630549,91.1089804 L82.630549,95.8289412 C82.630549,96.845451 82.6521961,99.6604706 83.0201961,100.308078 C83.1509804,100.548 83.5839216,100.67698 84.125098,100.720275 L84.7961569,100.786118 C84.9260392,100.958392 84.9034902,101.219059 84.7519608,101.326392 C83.7778431,101.283098 83.0201961,101.261451 82.2201569,101.261451 C81.3100784,101.261451 80.7265098,101.283098 79.9688627,101.326392 C79.8173333,101.219059 79.7965882,100.914196 79.9246667,100.786118 L80.5100392,100.720275 C81.0070196,100.655333 81.3533725,100.525451 81.4634118,100.287333 C81.7637647,99.5089412 81.7430196,96.868 81.7430196,95.8289412 L81.7430196,89.5729412 C81.7430196,88.9659216 81.7222745,88.5104314 81.2676863,88.0143529 C80.9646275,87.7112941 80.445098,87.5588627 79.9246667,87.4939216 L79.5566667,87.4515294 C79.4267843,87.3216471 79.4267843,86.9978431 79.6008627,86.909451 C80.5100392,86.9743922 81.6564314,86.9743922 82.0460784,86.9743922 C82.3933333,86.9743922 82.7613333,86.9536471 83.0427451,86.909451 C83.4747843,88.0143529 86.0291373,90.8717647 86.7443922,91.6727059 L88.8441569,94.0313333 C90.336,95.6981569 91.3967059,96.9103922 92.4150196,97.949451 L92.4592157,97.949451 C92.5458039,97.8421176 92.5458039,97.4948627 92.5458039,97.0402745 L92.5458039,92.4078039 C92.5458039,91.3903922 92.5241569,88.5771765 92.1119608,87.9268627 C91.9820784,87.7320392 91.6366275,87.6021569 90.7698431,87.4939216 L90.4018431,87.4515294 C90.2503137,87.3216471 90.2728627,86.9743922 90.4451373,86.909451 C91.440902,86.9536471 92.176902,86.9743922 93.0003922,86.9743922 C93.9303137,86.9743922 94.4922353,86.9536471 95.2282353,86.909451 C95.4032157,87.0185882 95.4032157,87.3216471 95.2724314,87.4515294 L94.9693725,87.4939216 C94.2775686,87.6021569 93.8437255,87.7762353 93.7571373,87.9485098 C93.3891373,88.7278039 93.4333333,91.4120392 93.4333333,92.4078039 L93.4333333,97.581451" id="Fill-10" fill="#FFFFFF" sketch:type="MSShapeGroup"></path>
            <g id="Group-14" transform="translate(39.000000, 84.098039)">
                <mask id="mask-4" sketch:name="Clip 12" fill="white">
                    <use xlink:href="#path-3"></use>
                </mask>
                <g id="Clip-12"></g>
                <path d="M60.1544706,17.5088627 C58.3343137,17.5088627 57.1879216,16.9469412 56.7775294,16.7088235 C56.5168627,16.2316863 56.234549,14.6956471 56.1921569,13.6791373 C56.3003922,13.5258039 56.626,13.4834118 56.7125882,13.6141961 C57.0363922,14.7163922 57.9239216,16.8396078 60.4349804,16.8396078 C62.2524314,16.8396078 63.1408627,15.6481176 63.1408627,14.3501961 C63.1408627,13.3968235 62.9469412,12.3370196 61.364902,11.3187059 L59.3093333,9.97568627 C58.2269804,9.26223529 56.971451,8.02745098 56.971451,6.25329412 C56.971451,4.19682353 58.5742353,2.53090196 61.387451,2.53090196 C62.0585098,2.53090196 62.8378039,2.66078431 63.4015294,2.81141176 C63.6811373,2.89980392 63.9841961,2.94219608 64.1564706,2.94219608 C64.3521961,3.46082353 64.5479216,4.67396078 64.5479216,5.58223529 C64.4613333,5.71301961 64.1149804,5.77705882 64.0058431,5.64807843 C63.7253333,4.60811765 63.1408627,3.20105882 61.0618431,3.20105882 C58.9404314,3.20105882 58.4858431,4.60811765 58.4858431,5.60568627 C58.4858431,6.85941176 59.5258039,7.76858824 60.3267451,8.26737255 L62.0585098,9.34882353 C63.4222745,10.1930588 64.7643922,11.4485882 64.7643922,13.5050588 C64.7643922,15.8862353 62.9676863,17.5088627 60.1544706,17.5088627" id="Fill-11" fill="#FFFFFF" sketch:type="MSShapeGroup" mask="url(#mask-4)"></path>
                <path d="M77.6128235,8.87709804 C76.3816471,8.87709804 76.3302353,8.92670588 76.3302353,9.69607843 L76.3302353,13.3147451 C76.3302353,16.008 76.4574118,16.3678824 77.8942353,16.5230196 L78.6401569,16.6005882 C78.7934902,16.7025098 78.7420784,17.1643137 78.5869412,17.2391765 C77.2024314,17.1886667 76.3302353,17.1643137 75.3299608,17.1643137 C74.2250588,17.1643137 73.3528627,17.2148235 72.3525882,17.2391765 C72.197451,17.1643137 72.1460392,16.7530196 72.3011765,16.6005882 L72.7368235,16.5230196 C74.1736471,16.2650588 74.2250588,16.008 74.2250588,13.3147451 L74.2250588,4.07686275 C74.2250588,1.38270588 74.0455686,0.946156863 72.7115686,0.844235294 L72.0441176,0.792823529 C71.8907843,0.690901961 71.9421961,0.228196078 72.0955294,0.151529412 C73.3528627,0.176784314 74.2250588,0.228196078 75.3299608,0.228196078 C76.3302353,0.228196078 77.2024314,0.202941176 78.3055294,0.151529412 C78.4597647,0.228196078 78.5111765,0.690901961 78.3560392,0.792823529 L77.8680784,0.844235294 C76.3816471,0.999372549 76.3302353,1.38270588 76.3302353,4.07686275 L76.3302353,7.02807843 C76.3302353,7.82360784 76.3816471,7.84796078 77.6128235,7.84796078 L84.9520784,7.84796078 C86.1832549,7.84796078 86.2346667,7.82360784 86.2346667,7.02807843 L86.2346667,4.07686275 C86.2346667,1.38270588 86.1832549,0.999372549 84.6679608,0.844235294 L84.18,0.792823529 C84.0266667,0.690901961 84.0780784,0.228196078 84.2332157,0.151529412 C85.4111765,0.202941176 86.2851765,0.228196078 87.3368627,0.228196078 C88.3380392,0.228196078 89.2111373,0.202941176 90.3656471,0.151529412 C90.5189804,0.228196078 90.5712941,0.690901961 90.4161569,0.792823529 L89.8776863,0.844235294 C88.3903529,0.999372549 88.3380392,1.38270588 88.3380392,4.07686275 L88.3380392,13.3147451 C88.3380392,16.008 88.3903529,16.3426275 89.8776863,16.5230196 L90.4937255,16.6005882 C90.6470588,16.7025098 90.596549,17.1643137 90.4414118,17.2391765 C89.2111373,17.1886667 88.3380392,17.1643137 87.3368627,17.1643137 C86.2851765,17.1643137 85.3624706,17.1886667 84.2332157,17.2391765 C84.0780784,17.1643137 84.0266667,16.7530196 84.18,16.6005882 L84.6679608,16.5230196 C86.2346667,16.2650588 86.2346667,16.008 86.2346667,13.3147451 L86.2346667,9.69607843 C86.2346667,8.92670588 86.1832549,8.87709804 84.9520784,8.87709804 L77.6128235,8.87709804" id="Fill-13" fill="#FFFFFF" sketch:type="MSShapeGroup" mask="url(#mask-4)"></path>
            </g>
            <path d="M142.383647,94.7240392 C142.383647,91.1531765 140.805216,87.299098 136.668824,87.299098 C134.419333,87.299098 131.49698,88.8369412 131.49698,93.5776471 C131.49698,96.7796078 133.055569,100.937647 137.319137,100.937647 C139.917686,100.937647 142.383647,98.9894118 142.383647,94.7240392 M129.331373,94.269451 C129.331373,89.9409412 132.580235,86.6280392 137.036824,86.6280392 C142.038196,86.6280392 144.548353,90.243098 144.548353,94.0529804 C144.548353,98.4256863 141.215608,101.606902 137.036824,101.606902 C132.23298,101.606902 129.331373,98.1659216 129.331373,94.269451" id="Fill-15" fill="#FFFFFF" sketch:type="MSShapeGroup"></path>
            <path d="M148.466471,98.0152941 C148.466471,100.288235 148.510667,100.569647 149.895176,100.721176 L150.479647,100.786118 C150.610431,100.893451 150.568039,101.262353 150.436353,101.327294 C149.202471,101.283098 148.48902,101.262353 147.622235,101.262353 C146.713961,101.262353 145.934667,101.283098 144.982196,101.327294 C144.851412,101.262353 144.80902,100.915098 144.939804,100.786118 L145.394392,100.721176 C146.648118,100.548902 146.692314,100.288235 146.692314,98.0152941 L146.692314,90.0284314 C146.692314,88.1875294 146.648118,87.8195294 145.674,87.7112941 L144.895608,87.6238039 C144.744078,87.4948235 144.764824,87.1701176 144.939804,87.0835294 C146.086196,86.931098 147.429216,86.909451 149.224118,86.909451 C151.020824,86.909451 152.362941,87.1475686 153.381255,87.7762353 C154.37702,88.404 155.11302,89.5296471 155.11302,91.0223922 C155.11302,93.0139216 153.880039,94.0114902 152.948314,94.4651765 C151.994941,94.9197647 150.848549,95.1136863 149.960118,95.1136863 C149.808588,95.050549 149.808588,94.7249412 149.939373,94.682549 C152.277255,94.2487059 153.120588,92.9273333 153.120588,91.0449412 C153.120588,88.9442745 151.887608,87.5823137 149.636314,87.5823137 C148.48902,87.5823137 148.466471,87.667098 148.466471,88.3616078 L148.466471,98.0152941" id="Fill-16" fill="#FFFFFF" sketch:type="MSShapeGroup"></path>
            <path d="M157.474353,90.221451 C157.474353,87.9485098 157.430157,87.6021569 156.176431,87.4948235 L155.633451,87.4515294 C155.504471,87.3640392 155.548667,86.9743922 155.677647,86.909451 C156.738353,86.9536471 157.430157,86.9743922 158.404275,86.9743922 C159.24851,86.9743922 159.98451,86.9536471 160.916235,86.909451 C161.045216,86.9743922 161.089412,87.3640392 160.958627,87.4515294 L160.548235,87.4948235 C159.292706,87.6238039 159.24851,87.9485098 159.24851,90.221451 L159.24851,92.7126667 C159.24851,93.1230588 159.292706,93.533451 159.531725,93.533451 C159.725647,93.533451 159.98451,93.4044706 160.136039,93.2953333 C160.439098,93.0364706 161.002824,92.4727451 161.240941,92.2562745 L163.578824,89.9409412 C163.989216,89.5503922 165.050824,88.4463922 165.266392,88.1442353 C165.375529,87.9918039 165.419725,87.8835686 165.419725,87.7969804 C165.419725,87.7112941 165.333137,87.6463529 165.050824,87.5814118 L164.466353,87.4515294 C164.314824,87.299098 164.335569,87.0185882 164.508745,86.909451 C165.266392,86.9536471 166.133176,86.9743922 166.889922,86.9743922 C167.647569,86.9743922 168.384471,86.9536471 169.032078,86.909451 C169.185412,87.0185882 169.207059,87.3216471 169.076275,87.4515294 C168.514353,87.4948235 167.67102,87.7112941 167.064902,88.0576471 C166.458784,88.403098 165.244745,89.4205098 164.03251,90.5687059 L162.084275,92.4078039 C161.781216,92.7126667 161.586392,92.9065882 161.586392,93.0788627 C161.586392,93.2321961 161.716275,93.4044706 161.998588,93.7499216 C164.054157,96.108549 165.72098,98.0576863 167.410353,99.8327451 C167.929882,100.352275 168.324039,100.634588 169.059137,100.721176 L169.476745,100.786118 C169.630078,100.893451 169.585882,101.261451 169.432549,101.327294 C168.870627,101.283098 168.277137,101.261451 167.258824,101.261451 C166.372196,101.261451 165.612745,101.283098 164.617882,101.327294 C164.466353,101.283098 164.401412,100.914196 164.531294,100.786118 L165.028275,100.697725 C165.333137,100.655333 165.547804,100.590392 165.547804,100.483059 C165.547804,100.352275 165.396275,100.18 165.244745,99.9842745 C164.832549,99.4647451 164.270627,98.8802745 163.448039,97.949451 L161.716275,96.0012157 C160.483294,94.6167059 160.136039,94.1837647 159.61651,94.1837647 C159.292706,94.1837647 159.24851,94.4651765 159.24851,95.2228235 L159.24851,98.0152941 C159.24851,100.287333 159.292706,100.590392 160.504039,100.721176 L161.089412,100.786118 C161.21749,100.872706 161.176,101.261451 161.045216,101.327294 C159.98451,101.283098 159.24851,101.261451 158.404275,101.261451 C157.516745,101.261451 156.781647,101.283098 155.894118,101.327294 C155.764235,101.261451 155.720039,100.937647 155.849922,100.786118 L156.283765,100.721176 C157.430157,100.548 157.474353,100.287333 157.474353,98.0152941 L157.474353,90.221451" id="Fill-17" fill="#FFFFFF" sketch:type="MSShapeGroup"></path>
            <path d="M172.331451,90.2656471 C172.331451,87.9710588 172.289059,87.6021569 171.010078,87.4948235 L170.470706,87.4515294 C170.340824,87.3640392 170.383216,86.9752941 170.513098,86.909451 C171.595451,86.9536471 172.331451,86.9752941 173.240627,86.9752941 C174.107412,86.9752941 174.843412,86.9536471 175.924863,86.909451 C176.055647,86.9752941 176.098039,87.3640392 175.969059,87.4515294 L175.42698,87.4948235 C174.149804,87.6021569 174.107412,87.9710588 174.107412,90.2656471 L174.107412,97.971098 C174.107412,100.266588 174.149804,100.569647 175.42698,100.721176 L175.969059,100.786118 C176.098039,100.872706 176.055647,101.261451 175.924863,101.327294 C174.843412,101.283098 174.107412,101.261451 173.240627,101.261451 C172.331451,101.261451 171.677529,101.283098 170.596078,101.327294 C170.466196,101.261451 170.423804,100.915098 170.553686,100.786118 L171.010078,100.721176 C172.289059,100.569647 172.331451,100.266588 172.331451,97.971098 L172.331451,90.2656471" id="Fill-18" fill="#FFFFFF" sketch:type="MSShapeGroup"></path>
            <path d="M191.056157,97.581451 C191.056157,98.2317647 191.056157,100.806863 191.122902,101.368784 C191.078706,101.499569 190.948824,101.606902 190.710706,101.606902 C190.451843,101.240706 189.823176,100.483059 187.939882,98.339098 L182.917765,92.6242745 C182.334196,91.9532157 180.861294,90.1781569 180.406706,89.7037255 L180.364314,89.7037255 C180.276824,89.9625882 180.255176,90.4595686 180.255176,91.1089804 L180.255176,95.8289412 C180.255176,96.845451 180.276824,99.6604706 180.644824,100.308078 C180.775608,100.548 181.208549,100.67698 181.749725,100.720275 L182.420784,100.786118 C182.548863,100.958392 182.528118,101.219059 182.376588,101.326392 C181.402471,101.283098 180.644824,101.261451 179.844784,101.261451 C178.935608,101.261451 178.351137,101.283098 177.59349,101.326392 C177.441961,101.219059 177.419412,100.914196 177.549294,100.786118 L178.134667,100.720275 C178.631647,100.655333 178.978,100.525451 179.087137,100.287333 C179.390196,99.5089412 179.367647,96.868 179.367647,95.8289412 L179.367647,89.5729412 C179.367647,88.9659216 179.346902,88.5104314 178.892314,88.0143529 C178.589255,87.7112941 178.069725,87.5588627 177.549294,87.4939216 L177.181294,87.4515294 C177.051412,87.3216471 177.051412,86.9978431 177.22549,86.909451 C178.134667,86.9743922 179.281059,86.9743922 179.670706,86.9743922 C180.017961,86.9743922 180.385961,86.9536471 180.667373,86.909451 C181.101216,88.0143529 183.653765,90.8717647 184.367216,91.6727059 L186.468784,94.0313333 C187.962431,95.6981569 189.021333,96.9103922 190.039647,97.949451 L190.083843,97.949451 C190.170431,97.8421176 190.170431,97.4948627 190.170431,97.0402745 L190.170431,92.4078039 C190.170431,91.3903922 190.148784,88.5771765 189.736588,87.9268627 C189.606706,87.7320392 189.261255,87.6021569 188.396275,87.4939216 L188.028275,87.4515294 C187.874941,87.3216471 187.89749,86.9743922 188.069765,86.909451 C189.065529,86.9536471 189.801529,86.9743922 190.624118,86.9743922 C191.556745,86.9743922 192.118667,86.9536471 192.852863,86.909451 C193.027843,87.0185882 193.027843,87.3216471 192.897059,87.4515294 L192.594,87.4939216 C191.901294,87.6021569 191.468353,87.7762353 191.381765,87.9485098 C191.013765,88.7278039 191.056157,91.4120392 191.056157,92.4078039 L191.056157,97.581451" id="Fill-19" fill="#FFFFFF" sketch:type="MSShapeGroup"></path>
            <path d="M196.74302,101.606902 C194.922863,101.606902 193.776471,101.04498 193.364275,100.806863 C193.105412,100.329725 192.823098,98.7936863 192.778902,97.7771765 C192.888941,97.6238431 193.214549,97.581451 193.299333,97.7122353 C193.624941,98.8144314 194.512471,100.937647 197.023529,100.937647 C198.84098,100.937647 199.729412,99.7461569 199.729412,98.4482353 C199.729412,97.4948627 199.533686,96.4350588 197.953451,95.4167451 L195.898784,94.0737255 C194.815529,93.3602745 193.56,92.1254902 193.56,90.3513333 C193.56,88.2948627 195.16098,86.6289412 197.976,86.6289412 C198.647059,86.6289412 199.426353,86.7588235 199.990078,86.909451 C200.27149,86.9978431 200.572745,87.0402353 200.74502,87.0402353 C200.940745,87.5588627 201.136471,88.772 201.136471,89.6802745 C201.048078,89.8110588 200.703529,89.875098 200.594392,89.7461176 C200.313882,88.7061569 199.729412,87.299098 197.652196,87.299098 C195.52898,87.299098 195.074392,88.7061569 195.074392,89.7037255 C195.074392,90.957451 196.114353,91.8666275 196.91349,92.3654118 L198.647059,93.4468627 C200.010824,94.291098 201.352941,95.5466275 201.352941,97.603098 C201.352941,99.9842745 199.556235,101.606902 196.74302,101.606902" id="Fill-20" fill="#FFFFFF" sketch:type="MSShapeGroup"></path>
            <path d="M63.9825098,117.750196 C64.4975294,117.750196 64.8330588,117.683451 65.035098,117.504863 C65.2470588,117.314549 65.3255294,117.168431 65.3922745,117.045765 C65.4707451,117.012392 65.5943137,117.045765 65.6385098,117.11251 C65.4932941,117.671725 65.2921569,118.254392 65.1243922,118.478078 C64.6652941,118.455529 64.1953725,118.444706 63.6803529,118.444706 L62.0577255,118.444706 C61.4317647,118.444706 61.0619608,118.455529 60.8157255,118.478078 C60.7940784,118.466353 60.7381569,118.422157 60.7381569,118.332863 C60.7381569,118.298588 60.7940784,118.254392 60.8608235,118.209294 C61.3758431,117.873765 61.7447451,117.493137 62.5727451,116.598392 C63.311451,115.803765 64.1728235,114.718706 64.1728235,113.521804 C64.1728235,112.50349 63.6803529,111.887451 62.7738824,111.887451 C62.1028235,111.887451 61.6220784,112.346549 61.3199216,113.005882 C61.218902,113.062706 61.0511373,113.005882 61.0511373,112.860667 C61.4092157,111.875725 62.2931373,111.283137 63.3006275,111.283137 C64.4190588,111.283137 65.1469412,112.032667 65.1469412,113.107804 C65.1469412,113.80051 64.8222353,114.561765 63.9491373,115.568353 L63.2663529,116.352157 C62.3490588,117.403843 62.2480392,117.582431 62.2480392,117.650078 C62.2480392,117.728549 62.3039608,117.750196 62.5952941,117.750196 L63.9825098,117.750196" id="Fill-21" fill="#FFFFFF" sketch:type="MSShapeGroup"></path>
            <path d="M68.3885882,113.274667 C68.3885882,112.513412 68.3552157,112.268078 67.8528235,112.22298 L67.3152549,112.177882 C67.2259608,112.132784 67.2151373,111.977647 67.3035294,111.932549 C68.2442745,111.763882 68.8585098,111.473451 69.1498431,111.283137 C69.1958431,111.283137 69.2391373,111.304784 69.2616863,111.339059 C69.2391373,111.540196 69.2174902,112.099412 69.2174902,112.737098 L69.2174902,117.079137 C69.2174902,117.94051 69.2391373,118.130824 69.6982353,118.164196 L70.1690588,118.198471 C70.2358039,118.265216 70.2240784,118.443804 70.1465098,118.478078 C69.7099608,118.455529 69.2066667,118.443804 68.8143137,118.443804 C68.4111373,118.443804 67.9078431,118.455529 67.4712941,118.478078 C67.3928235,118.443804 67.382,118.265216 67.4496471,118.198471 L67.9078431,118.164196 C68.3786667,118.130824 68.3885882,117.94051 68.3885882,117.079137 L68.3885882,113.274667" id="Fill-22" fill="#FFFFFF" sketch:type="MSShapeGroup"></path>
            <path d="M71.844902,115.451098 C71.7276471,115.314902 71.6428627,114.864824 71.6491765,114.459843 C71.6888627,114.394902 71.7998039,114.387686 71.8512157,114.433686 C71.9693725,114.76651 72.3211373,115.464627 72.9606275,115.464627 C73.4567059,115.464627 73.7372157,115.165176 73.7372157,114.76651 C73.7372157,114.394902 73.5604314,114.094549 73.0715686,113.820353 L72.7910588,113.664314 C72.3012941,113.390118 71.8710588,112.991451 71.8710588,112.405176 C71.8710588,111.758471 72.3536078,111.21098 73.3060784,111.21098 C73.6461176,111.21098 73.8932549,111.289451 74.1999216,111.348078 C74.2720784,111.49149 74.3370196,111.922627 74.3370196,112.229294 C74.304549,112.28702 74.1872941,112.294235 74.1286667,112.248235 C74.0303529,111.909098 73.8021569,111.472549 73.247451,111.472549 C72.7261176,111.472549 72.510549,111.811686 72.510549,112.157137 C72.510549,112.430431 72.6999608,112.725373 73.1301961,112.952667 L73.5351765,113.168235 C73.959098,113.390118 74.4281176,113.794196 74.4281176,114.453529 C74.4281176,115.197647 73.8607843,115.726196 72.9155294,115.726196 C72.3148235,115.726196 71.9756863,115.529569 71.844902,115.451098" id="Fill-23" fill="#FFFFFF" sketch:type="MSShapeGroup"></path>
            <path d="M77.1466275,111.863098 C77.1466275,111.588902 77.1403137,111.576275 76.9707451,111.576275 L76.605451,111.576275 C76.0047451,111.576275 75.8288627,111.648431 75.5871373,112.176078 C75.5420392,112.215765 75.4049412,112.195922 75.3787843,112.13098 C75.4897255,111.778314 75.5871373,111.374235 75.6331373,111.145137 C75.6466667,111.126196 75.6728235,111.119882 75.7052941,111.119882 C75.731451,111.119882 75.7567059,111.126196 75.7702353,111.145137 C75.8027059,111.308392 75.8938039,111.315608 76.3384706,111.315608 L78.9992549,111.315608 C79.319451,111.315608 79.4168627,111.295765 79.4953333,111.145137 C79.5214902,111.13251 79.5476471,111.119882 79.5738039,111.119882 C79.6125882,111.119882 79.6459608,111.13251 79.6585882,111.152353 C79.5927451,111.419333 79.5413333,111.980353 79.5602745,112.188706 C79.5278039,112.241922 79.4168627,112.254549 79.3582353,112.209451 C79.273451,111.699843 79.1498824,111.576275 78.4517647,111.576275 L78.0801569,111.576275 C77.9096863,111.576275 77.9033725,111.588902 77.9033725,111.863098 L77.9033725,114.680824 C77.9033725,115.373529 77.962,115.392471 78.2686667,115.424941 L78.5031765,115.451098 C78.5491765,115.496196 78.5428627,115.614353 78.490549,115.639608 C78.1126275,115.62698 77.8185882,115.620667 77.5317647,115.620667 C77.2449412,115.620667 76.9382745,115.62698 76.5206667,115.639608 C76.4683529,115.614353 76.4620392,115.483569 76.5080392,115.451098 L76.7813333,115.417725 C77.088,115.378941 77.1466275,115.373529 77.1466275,114.680824 L77.1466275,111.863098" id="Fill-24" fill="#FFFFFF" sketch:type="MSShapeGroup"></path>
            <path d="M85.3120784,111.830627 C86.1292549,111.192941 87.1701176,110.879961 88.3336471,110.879961 C88.9379608,110.879961 89.7876078,111.002627 90.313451,111.148745 C90.4478431,111.182118 90.5263137,111.204667 90.6273333,111.192941 C90.6381569,111.450902 90.6940784,112.155333 90.7833725,112.838118 C90.727451,112.916588 90.5596863,112.927412 90.4812157,112.860667 C90.313451,112.099412 89.8101569,111.226314 88.1875294,111.226314 C86.4756078,111.226314 85.0216471,112.312275 85.0216471,114.62851 C85.0216471,116.978118 86.5098824,118.276039 88.3444706,118.276039 C89.7876078,118.276039 90.4252941,117.336196 90.6832549,116.675961 C90.7617255,116.620039 90.9294902,116.642588 90.9736863,116.721059 C90.8952157,117.301922 90.6047843,118.041529 90.4370196,118.25349 C90.3026275,118.276039 90.1682353,118.320235 90.0455686,118.365333 C89.7993333,118.455529 88.9938824,118.622392 88.2777255,118.622392 C87.2702353,118.622392 86.3078431,118.422157 85.4915686,117.872863 C84.5959216,117.257725 83.9023137,116.239412 83.9023137,114.796275 C83.9023137,113.554275 84.4615294,112.490863 85.3120784,111.830627" id="Fill-25" fill="#FFFFFF" sketch:type="MSShapeGroup"></path>
            <path d="M93.1852941,112.737098 C93.1852941,111.573569 93.1627451,111.405804 92.5025098,111.328235 L92.3239216,111.304784 C92.2562745,111.260588 92.2788235,111.059451 92.3464706,111.026078 C92.8272157,111.047725 93.2078431,111.059451 93.6660392,111.059451 L95.7703137,111.059451 C96.4864706,111.059451 97.1467059,111.059451 97.281098,111.026078 C97.3478431,111.21549 97.4145882,112.020941 97.4596863,112.513412 C97.4145882,112.581059 97.236,112.603608 97.1800784,112.535961 C97.0123137,112.010118 96.9112941,111.618667 96.3295294,111.473451 C96.0950196,111.416627 95.7369412,111.405804 95.2444706,111.405804 L94.4390196,111.405804 C94.1025882,111.405804 94.1025882,111.428353 94.1025882,111.854078 L94.1025882,114.090941 C94.1025882,114.404824 94.1368627,114.404824 94.4723922,114.404824 L95.120902,114.404824 C95.5908235,114.404824 95.9380784,114.382275 96.0724706,114.337176 C96.2068627,114.29298 96.2853333,114.225333 96.3412549,113.945725 L96.430549,113.487529 C96.4864706,113.419882 96.6767843,113.419882 96.7209804,113.498353 C96.7209804,113.767137 96.6767843,114.203686 96.6767843,114.62851 C96.6767843,115.031686 96.7209804,115.45651 96.7209804,115.702745 C96.6767843,115.781216 96.4864706,115.781216 96.430549,115.713569 L96.3295294,115.27702 C96.2853333,115.075882 96.2068627,114.908118 95.9831765,114.852196 C95.8262353,114.807098 95.557451,114.796275 95.120902,114.796275 L94.4723922,114.796275 C94.1368627,114.796275 94.1025882,114.807098 94.1025882,115.098431 L94.1025882,116.675961 C94.1025882,117.268549 94.1368627,117.649176 94.315451,117.83949 C94.4498431,117.973882 94.6843529,118.096549 95.6692941,118.096549 C96.5306667,118.096549 96.8553725,118.052353 97.1016078,117.929686 C97.3027451,117.817843 97.604902,117.42549 97.8962353,116.843725 C97.9747059,116.787804 98.1307451,116.821176 98.1758431,116.922196 C98.0973725,117.313647 97.8177647,118.17502 97.672549,118.477176 C96.6650588,118.455529 95.6692941,118.443804 94.6735294,118.443804 L93.6660392,118.443804 C93.1852941,118.443804 92.8046667,118.455529 92.1444314,118.477176 C92.0776863,118.443804 92.0551373,118.265216 92.1218824,118.198471 L92.4916863,118.164196 C93.1293725,118.108275 93.1852941,117.94051 93.1852941,116.766157 L93.1852941,112.737098" id="Fill-26" fill="#FFFFFF" sketch:type="MSShapeGroup"></path>
            <path d="M106.519882,116.541569 C106.519882,116.878 106.519882,118.209294 106.553255,118.500627 C106.530706,118.567373 106.463961,118.623294 106.340392,118.623294 C106.206,118.43298 105.881294,118.041529 104.908078,116.933922 L102.312235,113.979098 C102.010078,113.632745 101.249725,112.715451 101.014314,112.469216 L100.992667,112.469216 C100.947569,112.603608 100.936745,112.860667 100.936745,113.196196 L100.936745,115.636 C100.936745,116.161843 100.947569,117.615804 101.137882,117.951333 C101.204627,118.074902 101.428314,118.141647 101.708824,118.164196 L102.055176,118.198471 C102.122824,118.287765 102.111098,118.422157 102.032627,118.477176 C101.529333,118.455529 101.137882,118.443804 100.723882,118.443804 C100.253961,118.443804 99.9518039,118.455529 99.5603529,118.477176 C99.4818824,118.422157 99.4710588,118.265216 99.5378039,118.198471 L99.8399608,118.164196 C100.09702,118.130824 100.27651,118.063176 100.332431,117.94051 C100.488471,117.537333 100.477647,116.172667 100.477647,115.636 L100.477647,112.401569 C100.477647,112.088588 100.466824,111.854078 100.231412,111.59702 C100.074471,111.440078 99.8065882,111.361608 99.5378039,111.328235 L99.3474902,111.304784 C99.2807451,111.238039 99.2807451,111.071176 99.3700392,111.026078 C99.8399608,111.059451 100.432549,111.059451 100.634588,111.059451 C100.813176,111.059451 101.00349,111.047725 101.148706,111.026078 C101.372392,111.59702 102.692863,113.072627 103.062667,113.487529 L104.147725,114.70698 C104.919804,115.568353 105.467294,116.195216 105.994039,116.731882 L106.015686,116.731882 C106.060784,116.675961 106.060784,116.497373 106.060784,116.261961 L106.060784,113.867255 C106.060784,113.341412 106.049961,111.887451 105.837098,111.551922 C105.769451,111.450902 105.590863,111.383255 105.14349,111.328235 L104.953176,111.304784 C104.874706,111.238039 104.885529,111.059451 104.975725,111.026078 C105.489843,111.047725 105.870471,111.059451 106.295294,111.059451 C106.776941,111.059451 107.067373,111.047725 107.448,111.026078 C107.538196,111.081098 107.538196,111.238039 107.470549,111.304784 L107.313608,111.328235 C106.955529,111.383255 106.731843,111.473451 106.687647,111.562745 C106.497333,111.965922 106.519882,113.353137 106.519882,113.867255 L106.519882,116.541569" id="Fill-27" fill="#FFFFFF" sketch:type="MSShapeGroup"></path>
            <path d="M112.501686,116.766157 C112.501686,117.94051 112.523333,118.108275 113.172745,118.164196 L113.530824,118.198471 C113.597569,118.242667 113.57502,118.443804 113.508275,118.477176 C112.870588,118.455529 112.489961,118.443804 112.042588,118.443804 C111.595216,118.443804 111.203765,118.455529 110.487608,118.477176 C110.419961,118.443804 110.397412,118.25349 110.487608,118.198471 L110.889882,118.164196 C111.527569,118.108275 111.58349,117.94051 111.58349,116.766157 L111.58349,111.763882 C111.58349,111.416627 111.58349,111.406706 111.247961,111.406706 L110.632824,111.406706 C110.152078,111.406706 109.536039,111.428353 109.256431,111.685412 C108.987647,111.932549 108.875804,112.177882 108.753137,112.458392 C108.663843,112.525137 108.506902,112.469216 108.461804,112.379922 C108.641294,111.875725 108.809059,111.159569 108.887529,110.712196 C108.920902,110.690549 109.066118,110.678824 109.100392,110.712196 C109.167137,111.071176 109.536039,111.059451 110.051059,111.059451 L114.58251,111.059451 C115.186824,111.059451 115.287843,111.036902 115.455608,110.745569 C115.511529,110.723922 115.634196,110.734745 115.656745,110.778941 C115.534078,111.238039 115.455608,112.14451 115.48898,112.480039 C115.443882,112.570235 115.253569,112.570235 115.197647,112.502588 C115.164275,112.22298 115.085804,111.80898 114.918039,111.685412 C114.66098,111.495098 114.235255,111.406706 113.620118,111.406706 L112.82549,111.406706 C112.489961,111.406706 112.501686,111.416627 112.501686,111.786431 L112.501686,116.766157" id="Fill-28" fill="#FFFFFF" sketch:type="MSShapeGroup"></path>
            <path d="M123.094314,113.867255 C123.094314,113.173647 123.071765,111.887451 122.881451,111.551922 C122.80298,111.416627 122.601843,111.339059 122.322235,111.31651 L122.042627,111.293961 C121.97498,111.216392 121.997529,111.070275 122.064275,111.026078 C122.49,111.047725 122.904,111.059451 123.340549,111.059451 C123.810471,111.059451 124.112627,111.047725 124.514902,111.026078 C124.605098,111.081098 124.593373,111.226314 124.537451,111.293961 L124.268667,111.31651 C123.989059,111.339059 123.777098,111.440078 123.709451,111.585294 C123.55251,111.954196 123.55251,113.241294 123.55251,113.867255 L123.55251,115.131804 C123.55251,116.10502 123.396471,117.135059 122.769608,117.806118 C122.288863,118.331961 121.459961,118.622392 120.632863,118.622392 C119.860784,118.622392 119.088706,118.477176 118.540314,118.008157 C117.946824,117.515686 117.667216,116.69851 117.667216,115.367216 L117.667216,112.726275 C117.667216,111.562745 117.644667,111.372431 116.996157,111.31651 L116.716549,111.293961 C116.648902,111.249765 116.671451,111.059451 116.739098,111.026078 C117.298314,111.047725 117.678941,111.059451 118.126314,111.059451 C118.58451,111.059451 118.954314,111.047725 119.502706,111.026078 C119.569451,111.059451 119.592,111.249765 119.524353,111.293961 L119.256471,111.31651 C118.607059,111.372431 118.58451,111.562745 118.58451,112.726275 L118.58451,115.143529 C118.58451,116.944745 119.144627,118.130824 120.856549,118.130824 C122.478275,118.130824 123.094314,116.855451 123.094314,115.154353 L123.094314,113.867255" id="Fill-29" fill="#FFFFFF" sketch:type="MSShapeGroup"></path>
            <path d="M127.577059,114.348902 C127.577059,114.550039 127.577059,114.672706 127.611333,114.717804 C127.644706,114.751176 127.812471,114.773725 128.383412,114.773725 C128.785686,114.773725 129.211412,114.729529 129.535216,114.482392 C129.837373,114.247882 130.095333,113.856431 130.095333,113.095176 C130.095333,112.211255 129.546941,111.372431 128.304941,111.372431 C127.611333,111.372431 127.577059,111.416627 127.577059,111.73051 L127.577059,114.348902 L127.577059,114.348902 Z M126.659765,112.748824 C126.659765,111.685412 126.626392,111.495098 126.167294,111.439176 L125.809216,111.39498 C125.730745,111.339059 125.730745,111.159569 125.820941,111.114471 C126.446902,111.059451 127.21898,111.025176 128.315765,111.025176 C129.009373,111.025176 129.669608,111.081098 130.184627,111.360706 C130.721294,111.640314 131.112745,112.14451 131.112745,112.927412 C131.112745,113.990824 130.273922,114.572588 129.714706,114.796275 C129.658784,114.86302 129.714706,114.974863 129.770627,115.065059 C130.665373,116.508196 131.258863,117.403843 132.019216,118.041529 C132.209529,118.208392 132.489137,118.331961 132.791294,118.353608 C132.847216,118.377059 132.858039,118.465451 132.802118,118.510549 C132.702,118.543922 132.52251,118.567373 132.310549,118.567373 C131.35898,118.567373 130.788941,118.286863 129.994314,117.156706 C129.70298,116.742706 129.244784,115.971529 128.897529,115.467333 C128.729765,115.222 128.551176,115.109255 128.102902,115.109255 C127.599608,115.109255 127.577059,115.120078 127.577059,115.35549 L127.577059,116.766157 C127.577059,117.939608 127.599608,118.074902 128.24902,118.163294 L128.483529,118.198471 C128.551176,118.25349 128.528627,118.443804 128.46098,118.477176 C127.957686,118.455529 127.577059,118.443804 127.129686,118.443804 C126.659765,118.443804 126.256588,118.455529 125.730745,118.477176 C125.664,118.443804 125.641451,118.276039 125.708196,118.198471 L125.988706,118.163294 C126.637216,118.086627 126.659765,117.939608 126.659765,116.766157 L126.659765,112.748824 L126.659765,112.748824 Z" id="Fill-30" fill="#FFFFFF" sketch:type="MSShapeGroup"></path>
            <path d="M136.032941,116.742706 C136.032941,117.939608 136.100588,118.119098 136.704902,118.163294 L137.129725,118.197569 C137.197373,118.264314 137.174824,118.443804 137.107176,118.477176 C136.413569,118.454627 136.032941,118.443804 135.585569,118.443804 C135.115647,118.443804 134.713373,118.454627 134.119882,118.477176 C134.053137,118.443804 134.030588,118.264314 134.097333,118.197569 L134.444588,118.163294 C135.093098,118.096549 135.115647,117.939608 135.115647,116.742706 L135.115647,116.171765 C135.115647,115.557529 135.082275,115.41051 134.757569,114.784549 L133.437098,112.211255 C133.056471,111.472549 132.888706,111.416627 132.553176,111.360706 L132.240196,111.304784 C132.172549,111.226314 132.184275,111.070275 132.262745,111.025176 C132.620824,111.047725 133.023098,111.058549 133.560667,111.058549 C134.074784,111.058549 134.477961,111.047725 134.757569,111.025176 C134.858588,111.058549 134.858588,111.237137 134.790941,111.304784 L134.645725,111.327333 C134.254275,111.383255 134.175804,111.439176 134.175804,111.528471 C134.175804,111.640314 134.467137,112.278902 134.523059,112.390745 C134.937059,113.218745 135.351059,114.101765 135.787608,114.874745 C136.133961,114.281255 136.502863,113.632745 136.839294,112.983333 C137.152275,112.401569 137.566275,111.640314 137.566275,111.505922 C137.566275,111.439176 137.365137,111.360706 137.096353,111.327333 L136.895216,111.304784 C136.816745,111.226314 136.827569,111.070275 136.916863,111.025176 C137.320039,111.047725 137.644745,111.058549 137.991098,111.058549 C138.338353,111.058549 138.651333,111.047725 139.031961,111.025176 C139.121255,111.081098 139.13298,111.237137 139.05451,111.304784 L138.740627,111.360706 C138.158863,111.461725 137.823333,112.167059 137.264118,113.128549 L136.558784,114.348902 C136.067216,115.198549 136.032941,115.298667 136.032941,116.160941 L136.032941,116.742706" id="Fill-31" fill="#FFFFFF" sketch:type="MSShapeGroup"></path>
            <path d="M144.510471,111.830627 C145.326745,111.192941 146.367608,110.879961 147.531137,110.879961 C148.135451,110.879961 148.985098,111.002627 149.510941,111.148745 C149.645333,111.182118 149.723804,111.204667 149.824824,111.192941 C149.835647,111.450902 149.891569,112.155333 149.980863,112.838118 C149.924941,112.916588 149.757176,112.927412 149.678706,112.860667 C149.510941,112.099412 149.007647,111.226314 147.38502,111.226314 C145.673098,111.226314 144.219137,112.312275 144.219137,114.62851 C144.219137,116.978118 145.707373,118.276039 147.541961,118.276039 C148.985098,118.276039 149.622784,117.336196 149.880745,116.675961 C149.959216,116.620039 150.12698,116.642588 150.171176,116.721059 C150.092706,117.301922 149.802275,118.041529 149.63451,118.25349 C149.500118,118.276039 149.365725,118.320235 149.243059,118.365333 C148.996824,118.455529 148.191373,118.622392 147.475216,118.622392 C146.467725,118.622392 145.505333,118.422157 144.689059,117.872863 C143.793412,117.257725 143.099804,116.239412 143.099804,114.796275 C143.099804,113.554275 143.65902,112.490863 144.510471,111.830627" id="Fill-32" fill="#FFFFFF" sketch:type="MSShapeGroup"></path>
            <path d="M152.383686,112.759647 C152.383686,111.573569 152.361137,111.383255 151.700902,111.327333 L151.421294,111.304784 C151.354549,111.260588 151.376196,111.058549 151.443843,111.025176 C152.003059,111.047725 152.383686,111.058549 152.853608,111.058549 C153.30098,111.058549 153.681608,111.047725 154.240824,111.025176 C154.308471,111.058549 154.33102,111.260588 154.263373,111.304784 L153.983765,111.327333 C153.323529,111.383255 153.30098,111.573569 153.30098,112.759647 L153.30098,116.742706 C153.30098,117.928784 153.323529,118.085725 153.983765,118.163294 L154.263373,118.197569 C154.33102,118.241765 154.308471,118.443804 154.240824,118.477176 C153.681608,118.454627 153.30098,118.443804 152.853608,118.443804 C152.383686,118.443804 152.003059,118.454627 151.443843,118.477176 C151.376196,118.443804 151.354549,118.265216 151.421294,118.197569 L151.700902,118.163294 C152.361137,118.085725 152.383686,117.928784 152.383686,116.742706 L152.383686,112.759647" id="Fill-33" fill="#FFFFFF" sketch:type="MSShapeGroup"></path>
            <path d="M159.408157,116.766157 C159.408157,117.94051 159.430706,118.108275 160.080118,118.164196 L160.438196,118.198471 C160.504941,118.242667 160.482392,118.443804 160.415647,118.477176 C159.777961,118.455529 159.397333,118.443804 158.949961,118.443804 C158.502588,118.443804 158.110235,118.455529 157.394078,118.477176 C157.327333,118.443804 157.304784,118.25349 157.394078,118.198471 L157.797255,118.164196 C158.434941,118.108275 158.490863,117.94051 158.490863,116.766157 L158.490863,111.763882 C158.490863,111.416627 158.490863,111.406706 158.155333,111.406706 L157.540196,111.406706 C157.058549,111.406706 156.443412,111.428353 156.163804,111.685412 C155.89502,111.932549 155.783176,112.177882 155.659608,112.458392 C155.570314,112.525137 155.413373,112.469216 155.369176,112.379922 C155.547765,111.875725 155.715529,111.159569 155.794,110.712196 C155.827373,110.690549 155.97349,110.678824 156.006863,110.712196 C156.073608,111.071176 156.443412,111.059451 156.958431,111.059451 L161.489882,111.059451 C162.094196,111.059451 162.194314,111.036902 162.362078,110.745569 C162.418,110.723922 162.541569,110.734745 162.564118,110.778941 C162.440549,111.238039 162.362078,112.14451 162.396353,112.480039 C162.351255,112.570235 162.160941,112.570235 162.10502,112.502588 C162.071647,112.22298 161.993176,111.80898 161.825412,111.685412 C161.568353,111.495098 161.142627,111.406706 160.52749,111.406706 L159.732863,111.406706 C159.397333,111.406706 159.408157,111.416627 159.408157,111.786431 L159.408157,116.766157" id="Fill-34" fill="#FFFFFF" sketch:type="MSShapeGroup"></path>
            <path d="M164.66298,112.759647 C164.66298,111.573569 164.640431,111.383255 163.980196,111.327333 L163.700588,111.304784 C163.633843,111.260588 163.65549,111.058549 163.723137,111.025176 C164.282353,111.047725 164.66298,111.058549 165.132902,111.058549 C165.580275,111.058549 165.960902,111.047725 166.520118,111.025176 C166.587765,111.058549 166.610314,111.260588 166.542667,111.304784 L166.263059,111.327333 C165.602824,111.383255 165.580275,111.573569 165.580275,112.759647 L165.580275,116.742706 C165.580275,117.928784 165.602824,118.085725 166.263059,118.163294 L166.542667,118.197569 C166.610314,118.241765 166.587765,118.443804 166.520118,118.477176 C165.960902,118.454627 165.580275,118.443804 165.132902,118.443804 C164.66298,118.443804 164.282353,118.454627 163.723137,118.477176 C163.65549,118.443804 163.633843,118.265216 163.700588,118.197569 L163.980196,118.163294 C164.640431,118.085725 164.66298,117.928784 164.66298,116.742706 L164.66298,112.759647" id="Fill-35" fill="#FFFFFF" sketch:type="MSShapeGroup"></path>
            <path d="M169.003216,112.737098 C169.003216,111.573569 168.980667,111.405804 168.320431,111.328235 L168.141843,111.304784 C168.074196,111.260588 168.096745,111.059451 168.164392,111.026078 C168.645137,111.047725 169.025765,111.059451 169.483961,111.059451 L171.588235,111.059451 C172.304392,111.059451 172.964627,111.059451 173.09902,111.026078 C173.165765,111.21549 173.23251,112.020941 173.277608,112.513412 C173.23251,112.581059 173.053922,112.603608 172.998,112.535961 C172.830235,112.010118 172.729216,111.618667 172.147451,111.473451 C171.912941,111.416627 171.554863,111.405804 171.062392,111.405804 L170.256941,111.405804 C169.92051,111.405804 169.92051,111.428353 169.92051,111.854078 L169.92051,114.090941 C169.92051,114.404824 169.954784,114.404824 170.290314,114.404824 L170.938824,114.404824 C171.408745,114.404824 171.756,114.382275 171.890392,114.337176 C172.024784,114.29298 172.103255,114.225333 172.159176,113.945725 L172.248471,113.487529 C172.304392,113.419882 172.494706,113.419882 172.538902,113.498353 C172.538902,113.767137 172.494706,114.203686 172.494706,114.62851 C172.494706,115.031686 172.538902,115.45651 172.538902,115.702745 C172.494706,115.781216 172.304392,115.781216 172.248471,115.713569 L172.147451,115.27702 C172.103255,115.075882 172.024784,114.908118 171.801098,114.852196 C171.644157,114.807098 171.375373,114.796275 170.938824,114.796275 L170.290314,114.796275 C169.954784,114.796275 169.92051,114.807098 169.92051,115.098431 L169.92051,116.675961 C169.92051,117.268549 169.954784,117.649176 170.133373,117.83949 C170.267765,117.973882 170.502275,118.096549 171.487216,118.096549 C172.348588,118.096549 172.673294,118.052353 172.919529,117.929686 C173.120667,117.817843 173.422824,117.42549 173.714157,116.843725 C173.792627,116.787804 173.948667,116.821176 173.993765,116.922196 C173.915294,117.313647 173.635686,118.17502 173.490471,118.477176 C172.48298,118.455529 171.487216,118.443804 170.491451,118.443804 L169.483961,118.443804 C169.003216,118.443804 168.622588,118.455529 167.962353,118.477176 C167.895608,118.443804 167.873059,118.265216 167.939804,118.198471 L168.309608,118.164196 C168.947294,118.108275 169.003216,117.94051 169.003216,116.766157 L169.003216,112.737098" id="Fill-36" fill="#FFFFFF" sketch:type="MSShapeGroup"></path>
            <path d="M176.94498,118.622392 C176.004235,118.622392 175.410745,118.331961 175.198784,118.208392 C175.064392,117.963059 174.919176,117.168431 174.897529,116.642588 C174.952549,116.564118 175.121216,116.540667 175.16451,116.609216 C175.333176,117.179255 175.791373,118.275137 177.090196,118.275137 C178.029137,118.275137 178.488235,117.660902 178.488235,116.988941 C178.488235,116.497373 178.387216,115.948078 177.570941,115.422235 L176.507529,114.729529 C175.949216,114.358824 175.299804,113.721137 175.299804,112.804745 C175.299804,111.741333 176.127804,110.879961 177.581765,110.879961 C177.929922,110.879961 178.332196,110.946706 178.622627,111.025176 C178.767843,111.070275 178.925686,111.091922 179.01498,111.091922 C179.116,111.360706 179.215216,111.987569 179.215216,112.45749 C179.171922,112.524235 178.991529,112.557608 178.935608,112.490863 C178.791294,111.953294 178.488235,111.226314 177.414902,111.226314 C176.317216,111.226314 176.083608,111.953294 176.083608,112.469216 C176.083608,113.116824 176.620275,113.587647 177.034275,113.844706 L177.929922,114.403922 C178.633451,114.841373 179.327961,115.48898 179.327961,116.552392 C179.327961,117.783569 178.398941,118.622392 176.94498,118.622392" id="Fill-37" fill="#FFFFFF" sketch:type="MSShapeGroup"></path>
            <path d="M89.6333725,124.927098 C89.6333725,123.74102 89.6108235,123.550706 88.9505882,123.494784 L88.6709804,123.472235 C88.6042353,123.428039 88.6258824,123.226 88.6935294,123.192627 C89.2527451,123.215176 89.6333725,123.226 90.1032941,123.226 C90.5506667,123.226 90.9312941,123.215176 91.4905098,123.192627 C91.5581569,123.226 91.5807059,123.428039 91.5130588,123.472235 L91.233451,123.494784 C90.5732157,123.550706 90.5506667,123.74102 90.5506667,124.927098 L90.5506667,128.910157 C90.5506667,130.096235 90.5732157,130.252275 91.233451,130.330745 L91.5130588,130.36502 C91.5807059,130.409216 91.5581569,130.611255 91.4905098,130.644627 C90.9312941,130.622078 90.5506667,130.611255 90.1032941,130.611255 C89.6333725,130.611255 89.2527451,130.622078 88.6935294,130.644627 C88.6258824,130.611255 88.6042353,130.432667 88.6709804,130.36502 L88.9505882,130.330745 C89.6108235,130.252275 89.6333725,130.096235 89.6333725,128.910157 L89.6333725,124.927098" id="Fill-38" fill="#FFFFFF" sketch:type="MSShapeGroup"></path>
            <path d="M99.9932941,128.708118 C99.9932941,129.044549 99.9932941,130.375843 100.026667,130.667176 C100.004118,130.733922 99.9373725,130.789843 99.8138039,130.789843 C99.6794118,130.599529 99.3547059,130.208078 98.3814902,129.100471 L95.7856471,126.145647 C95.4834902,125.799294 94.7231373,124.882 94.4877255,124.635765 L94.4660784,124.635765 C94.4209804,124.770157 94.4101569,125.027216 94.4101569,125.362745 L94.4101569,127.802549 C94.4101569,128.328392 94.4209804,129.782353 94.6112941,130.117882 C94.6780392,130.241451 94.9017255,130.308196 95.1822353,130.330745 L95.5285882,130.36502 C95.5962353,130.454314 95.5845098,130.588706 95.5060392,130.643725 C95.0027451,130.622078 94.6112941,130.610353 94.1972941,130.610353 C93.7273725,130.610353 93.4252157,130.622078 93.0337647,130.643725 C92.9552941,130.588706 92.9444706,130.431765 93.0112157,130.36502 L93.3133725,130.330745 C93.5704314,130.297373 93.7499216,130.229725 93.8058431,130.107059 C93.9618824,129.703882 93.9510588,128.339216 93.9510588,127.802549 L93.9510588,124.568118 C93.9510588,124.255137 93.9402353,124.020627 93.7048235,123.763569 C93.5478824,123.606627 93.28,123.528157 93.0112157,123.494784 L92.820902,123.471333 C92.7541569,123.404588 92.7541569,123.237725 92.843451,123.192627 C93.3133725,123.226 93.9059608,123.226 94.108,123.226 C94.2865882,123.226 94.476902,123.214275 94.6221176,123.192627 C94.8458039,123.763569 96.1662745,125.240078 96.5360784,125.654078 L97.6211373,126.873529 C98.3932157,127.734902 98.9407059,128.361765 99.467451,128.898431 L99.489098,128.898431 C99.5341961,128.84251 99.5341961,128.663922 99.5341961,128.42851 L99.5341961,126.033804 C99.5341961,125.507961 99.5233725,124.054 99.3105098,123.718471 C99.2428627,123.617451 99.0642745,123.549804 98.616902,123.494784 L98.4265882,123.471333 C98.3481176,123.404588 98.3589412,123.226 98.4491373,123.192627 C98.9632549,123.214275 99.3438824,123.226 99.7687059,123.226 C100.250353,123.226 100.540784,123.214275 100.921412,123.192627 C101.011608,123.247647 101.011608,123.404588 100.943961,123.471333 L100.78702,123.494784 C100.428941,123.549804 100.205255,123.64 100.161059,123.729294 C99.9707451,124.132471 99.9932941,125.519686 99.9932941,126.033804 L99.9932941,128.708118" id="Fill-39" fill="#FFFFFF" sketch:type="MSShapeGroup"></path>
            <path d="M103.289059,124.927098 C103.289059,123.74102 103.26651,123.550706 102.606275,123.494784 L102.326667,123.472235 C102.259922,123.428039 102.281569,123.226 102.349216,123.192627 C102.908431,123.215176 103.289059,123.226 103.75898,123.226 C104.206353,123.226 104.58698,123.215176 105.146196,123.192627 C105.213843,123.226 105.236392,123.428039 105.168745,123.472235 L104.889137,123.494784 C104.228902,123.550706 104.206353,123.74102 104.206353,124.927098 L104.206353,128.910157 C104.206353,130.096235 104.228902,130.252275 104.889137,130.330745 L105.168745,130.36502 C105.236392,130.409216 105.213843,130.611255 105.146196,130.644627 C104.58698,130.622078 104.206353,130.611255 103.75898,130.611255 C103.289059,130.611255 102.908431,130.622078 102.349216,130.644627 C102.281569,130.611255 102.259922,130.432667 102.326667,130.36502 L102.606275,130.330745 C103.26651,130.252275 103.289059,130.096235 103.289059,128.910157 L103.289059,124.927098" id="Fill-40" fill="#FFFFFF" sketch:type="MSShapeGroup"></path>
            <path d="M110.089843,128.932706 C110.089843,130.107059 110.112392,130.274824 110.761804,130.330745 L111.119882,130.36502 C111.186627,130.409216 111.164078,130.610353 111.097333,130.643725 C110.459647,130.622078 110.07902,130.610353 109.631647,130.610353 C109.184275,130.610353 108.791922,130.622078 108.075765,130.643725 C108.00902,130.610353 107.986471,130.420039 108.075765,130.36502 L108.478941,130.330745 C109.116627,130.274824 109.172549,130.107059 109.172549,128.932706 L109.172549,123.930431 C109.172549,123.583176 109.172549,123.573255 108.83702,123.573255 L108.221882,123.573255 C107.740235,123.573255 107.125098,123.594902 106.84549,123.851961 C106.576706,124.099098 106.464863,124.344431 106.341294,124.624941 C106.252,124.691686 106.095059,124.635765 106.050863,124.546471 C106.229451,124.042275 106.397216,123.326118 106.475686,122.878745 C106.509059,122.857098 106.655176,122.845373 106.688549,122.878745 C106.755294,123.237725 107.125098,123.226 107.640118,123.226 L112.171569,123.226 C112.775882,123.226 112.876,123.203451 113.043765,122.912118 C113.099686,122.890471 113.223255,122.901294 113.245804,122.94549 C113.122235,123.404588 113.043765,124.311059 113.078039,124.646588 C113.032941,124.736784 112.842627,124.736784 112.786706,124.669137 C112.753333,124.389529 112.674863,123.975529 112.507098,123.851961 C112.250039,123.661647 111.824314,123.573255 111.209176,123.573255 L110.414549,123.573255 C110.07902,123.573255 110.089843,123.583176 110.089843,123.95298 L110.089843,128.932706" id="Fill-41" fill="#FFFFFF" sketch:type="MSShapeGroup"></path>
            <path d="M115.345569,124.927098 C115.345569,123.74102 115.32302,123.550706 114.662784,123.494784 L114.383176,123.472235 C114.316431,123.428039 114.338078,123.226 114.405725,123.192627 C114.964941,123.215176 115.345569,123.226 115.81549,123.226 C116.262863,123.226 116.64349,123.215176 117.202706,123.192627 C117.270353,123.226 117.292902,123.428039 117.225255,123.472235 L116.945647,123.494784 C116.285412,123.550706 116.262863,123.74102 116.262863,124.927098 L116.262863,128.910157 C116.262863,130.096235 116.285412,130.252275 116.945647,130.330745 L117.225255,130.36502 C117.292902,130.409216 117.270353,130.611255 117.202706,130.644627 C116.64349,130.622078 116.262863,130.611255 115.81549,130.611255 C115.345569,130.611255 114.964941,130.622078 114.405725,130.644627 C114.338078,130.611255 114.316431,130.432667 114.383176,130.36502 L114.662784,130.330745 C115.32302,130.252275 115.345569,130.096235 115.345569,128.910157 L115.345569,124.927098" id="Fill-42" fill="#FFFFFF" sketch:type="MSShapeGroup"></path>
            <path d="M120.815059,127.018745 C120.725765,127.275804 120.736588,127.287529 121.049569,127.287529 L122.425961,127.287529 C122.750667,127.287529 122.773216,127.242431 122.672196,126.940275 L122.067882,125.117412 C121.978588,124.848627 121.877569,124.546471 121.810824,124.411176 L121.788275,124.411176 C121.754902,124.468 121.643059,124.736784 121.520392,125.072314 L120.815059,127.018745 L120.815059,127.018745 Z M123.030275,128.01451 C122.952706,127.768275 122.907608,127.734902 122.572078,127.734902 L120.881804,127.734902 C120.602196,127.734902 120.535451,127.768275 120.45698,128.003686 L120.065529,129.178941 C119.897765,129.682235 119.819294,129.984392 119.819294,130.107059 C119.819294,130.241451 119.875216,130.308196 120.144,130.330745 L120.512902,130.36502 C120.591373,130.420039 120.591373,130.599529 120.490353,130.644627 C120.199922,130.622078 119.852667,130.622078 119.326824,130.610353 C118.95702,130.610353 118.554745,130.632902 118.252588,130.644627 C118.184941,130.599529 118.163294,130.420039 118.230039,130.36502 L118.598941,130.330745 C118.867725,130.308196 119.113961,130.185529 119.270902,129.782353 C119.472039,129.268235 119.785922,128.540353 120.255843,127.287529 L121.396824,124.265961 C121.553765,123.863686 121.62051,123.651725 121.587137,123.471333 C121.855922,123.392863 122.046235,123.192627 122.168902,123.047412 C122.236549,123.047412 122.314118,123.069059 122.336667,123.147529 C122.481882,123.64 122.661373,124.154118 122.829137,124.646588 L124.362471,129.144667 C124.686275,130.107059 124.832392,130.274824 125.313137,130.330745 L125.615294,130.36502 C125.693765,130.420039 125.671216,130.599529 125.615294,130.644627 C125.156196,130.622078 124.764745,130.610353 124.261451,130.610353 C123.724784,130.610353 123.299059,130.632902 122.974353,130.644627 C122.885059,130.599529 122.874235,130.420039 122.952706,130.36502 L123.27651,130.330745 C123.511922,130.308196 123.668863,130.241451 123.668863,130.129608 C123.668863,130.006941 123.612039,129.804902 123.522745,129.53702 L123.030275,128.01451 L123.030275,128.01451 Z" id="Fill-43" fill="#FFFFFF" sketch:type="MSShapeGroup"></path>
            <path d="M129.338588,128.932706 C129.338588,130.107059 129.361137,130.274824 130.010549,130.330745 L130.368627,130.36502 C130.435373,130.409216 130.412824,130.610353 130.346078,130.643725 C129.708392,130.622078 129.327765,130.610353 128.880392,130.610353 C128.43302,130.610353 128.040667,130.622078 127.32451,130.643725 C127.257765,130.610353 127.235216,130.420039 127.32451,130.36502 L127.727686,130.330745 C128.365373,130.274824 128.421294,130.107059 128.421294,128.932706 L128.421294,123.930431 C128.421294,123.583176 128.421294,123.573255 128.085765,123.573255 L127.470627,123.573255 C126.98898,123.573255 126.373843,123.594902 126.094235,123.851961 C125.825451,124.099098 125.713608,124.344431 125.590039,124.624941 C125.500745,124.691686 125.343804,124.635765 125.299608,124.546471 C125.478196,124.042275 125.645961,123.326118 125.724431,122.878745 C125.757804,122.857098 125.903922,122.845373 125.937294,122.878745 C126.004039,123.237725 126.373843,123.226 126.888863,123.226 L131.420314,123.226 C132.024627,123.226 132.124745,123.203451 132.29251,122.912118 C132.348431,122.890471 132.472,122.901294 132.494549,122.94549 C132.37098,123.404588 132.29251,124.311059 132.326784,124.646588 C132.281686,124.736784 132.091373,124.736784 132.035451,124.669137 C132.002078,124.389529 131.923608,123.975529 131.755843,123.851961 C131.498784,123.661647 131.073059,123.573255 130.457922,123.573255 L129.663294,123.573255 C129.327765,123.573255 129.338588,123.583176 129.338588,123.95298 L129.338588,128.932706" id="Fill-44" fill="#FFFFFF" sketch:type="MSShapeGroup"></path>
            <path d="M134.594314,124.927098 C134.594314,123.74102 134.571765,123.550706 133.911529,123.494784 L133.631922,123.472235 C133.565176,123.428039 133.586824,123.226 133.654471,123.192627 C134.213686,123.215176 134.594314,123.226 135.064235,123.226 C135.511608,123.226 135.892235,123.215176 136.451451,123.192627 C136.519098,123.226 136.541647,123.428039 136.474,123.472235 L136.194392,123.494784 C135.534157,123.550706 135.511608,123.74102 135.511608,124.927098 L135.511608,128.910157 C135.511608,130.096235 135.534157,130.252275 136.194392,130.330745 L136.474,130.36502 C136.541647,130.409216 136.519098,130.611255 136.451451,130.644627 C135.892235,130.622078 135.511608,130.611255 135.064235,130.611255 C134.594314,130.611255 134.213686,130.622078 133.654471,130.644627 C133.586824,130.611255 133.565176,130.432667 133.631922,130.36502 L133.911529,130.330745 C134.571765,130.252275 134.594314,130.096235 134.594314,128.910157 L134.594314,124.927098" id="Fill-45" fill="#FFFFFF" sketch:type="MSShapeGroup"></path>
            <path d="M138.620667,124.411176 C138.362706,123.785216 138.194941,123.549804 137.714196,123.493882 L137.512157,123.471333 C137.434588,123.404588 137.445412,123.247647 137.534706,123.191725 C137.859412,123.214275 138.21749,123.226 138.698235,123.226 C139.190706,123.226 139.583059,123.214275 140.05298,123.191725 C140.130549,123.236824 140.153098,123.404588 140.074627,123.471333 L139.906863,123.493882 C139.482039,123.549804 139.392745,123.617451 139.38102,123.706745 C139.403569,123.818588 139.593882,124.422902 139.941137,125.273451 C140.455255,126.571373 140.970275,127.857569 141.52949,129.132941 C141.876745,128.395137 142.346667,127.242431 142.603725,126.648941 C142.928431,125.888588 143.454275,124.624039 143.644588,124.143294 C143.733882,123.907882 143.745608,123.785216 143.745608,123.706745 C143.745608,123.628275 143.633765,123.53898 143.241412,123.493882 L143.040275,123.471333 C142.961804,123.404588 142.984353,123.236824 143.062824,123.191725 C143.375804,123.214275 143.801529,123.226 144.226353,123.226 C144.596157,123.226 144.94251,123.214275 145.311412,123.191725 C145.389882,123.236824 145.389882,123.415412 145.333961,123.471333 L144.998431,123.493882 C144.729647,123.516431 144.561882,123.650824 144.416667,123.885333 C144.103686,124.411176 143.667137,125.317647 143.163843,126.459529 L142.559529,127.835922 C142.111255,128.864157 141.585412,130.16298 141.395098,130.755569 C141.361725,130.77902 141.317529,130.788941 141.272431,130.788941 C141.21651,130.788941 141.160588,130.77902 141.104667,130.755569 C140.981098,130.286549 140.779961,129.737255 140.589647,129.268235 L138.620667,124.411176" id="Fill-46" fill="#FFFFFF" sketch:type="MSShapeGroup"></path>
            <path d="M147.054,124.903647 C147.054,123.740118 147.031451,123.572353 146.371216,123.494784 L146.192627,123.471333 C146.12498,123.427137 146.147529,123.226 146.215176,123.192627 C146.695922,123.214275 147.076549,123.226 147.534745,123.226 L149.63902,123.226 C150.355176,123.226 151.015412,123.226 151.149804,123.192627 C151.216549,123.382039 151.283294,124.18749 151.328392,124.679961 C151.283294,124.747608 151.104706,124.770157 151.048784,124.70251 C150.88102,124.176667 150.78,123.785216 150.198235,123.64 C149.963725,123.583176 149.605647,123.572353 149.113176,123.572353 L148.307725,123.572353 C147.971294,123.572353 147.971294,123.594902 147.971294,124.020627 L147.971294,126.25749 C147.971294,126.571373 148.005569,126.571373 148.341098,126.571373 L148.989608,126.571373 C149.459529,126.571373 149.806784,126.548824 149.941176,126.503725 C150.075569,126.459529 150.154039,126.391882 150.209961,126.112275 L150.299255,125.654078 C150.355176,125.586431 150.54549,125.586431 150.589686,125.664902 C150.589686,125.933686 150.54549,126.370235 150.54549,126.795059 C150.54549,127.198235 150.589686,127.623059 150.589686,127.869294 C150.54549,127.947765 150.355176,127.947765 150.299255,127.880118 L150.198235,127.443569 C150.154039,127.242431 150.075569,127.074667 149.851882,127.018745 C149.694941,126.973647 149.426157,126.962824 148.989608,126.962824 L148.341098,126.962824 C148.005569,126.962824 147.971294,126.973647 147.971294,127.26498 L147.971294,128.84251 C147.971294,129.435098 148.005569,129.815725 148.184157,130.006039 C148.318549,130.140431 148.553059,130.263098 149.538,130.263098 C150.399373,130.263098 150.724078,130.218902 150.970314,130.096235 C151.171451,129.984392 151.473608,129.592039 151.764941,129.010275 C151.843412,128.954353 151.999451,128.987725 152.044549,129.088745 C151.966078,129.480196 151.686471,130.341569 151.541255,130.643725 C150.533765,130.622078 149.538,130.610353 148.542235,130.610353 L147.534745,130.610353 C147.054,130.610353 146.673373,130.622078 146.013137,130.643725 C145.946392,130.610353 145.923843,130.431765 145.990588,130.36502 L146.360392,130.330745 C146.998078,130.274824 147.054,130.107059 147.054,128.932706 L147.054,124.903647" id="Fill-47" fill="#FFFFFF" sketch:type="MSShapeGroup"></path>
        </g>
    </g>
</svg>