<?xml version="1.0" encoding="UTF-8" standalone="no"?>
<svg width="240px" height="170px" viewBox="0 0 240 170" version="1.1" xmlns="http://www.w3.org/2000/svg" xmlns:xlink="http://www.w3.org/1999/xlink" xmlns:sketch="http://www.bohemiancoding.com/sketch/ns">
    <!-- Generator: Sketch Beta 3.4 (14672) - http://www.bohemiancoding.com/sketch -->
    <title>logo</title>
    <desc>Created with Sketch Beta.</desc>
    <defs>
        <path id="path-1" d="M0,22.3167589 L162.316818,22.3167589 L162.316818,0.151495696 L0,0.151495696"></path>
    </defs>
    <g id="Page-1" stroke="none" stroke-width="1" fill="none" fill-rule="evenodd" sketch:type="MSPage">
        <g id="Homepage" sketch:type="MSArtboardGroup" transform="translate(-504.000000, 0.000000)">
            <g id="logo" sketch:type="MSLayerGroup" transform="translate(504.000000, 0.000000)">
                <rect id="Rectangle-6" fill="#FFFFFF" sketch:type="MSShapeGroup" x="0" y="0" width="240" height="170"></rect>
                <g id="21st-century-cities.logo.small.vertical.blue" transform="translate(39.000000, 39.000000)">
                    <path d="M81.9501541,38.7946211 C82.9069216,38.2661897 84.0602727,37.5384693 85.3092105,36.59613 L85.3092105,25.2943707 L81.9501541,23.0598092 L81.9501541,38.7946211" id="Fill-1" fill="#002D72" sketch:type="MSShapeGroup"></path>
                    <path d="M81.9501541,15.2352368 L85.3092105,17.4716019 L85.3092105,11.7607552 C84.191028,11.7084531 83.0710419,11.678695 81.9501541,11.6696774 L81.9501541,15.2352368" id="Fill-2" fill="#002D72" sketch:type="MSShapeGroup"></path>
                    <path d="M92.0291267,12.3550151 C90.9127477,12.2116352 89.7927617,12.0953082 88.6682668,11.9970163 L88.6682668,19.7079669 L92.0291267,21.9452337 L92.0291267,12.3550151" id="Fill-3" fill="#002D72" sketch:type="MSShapeGroup"></path>
                    <path d="M88.6691686,27.5316375 L88.6691686,33.6780344 C89.799074,32.5544413 90.9370952,31.255005 92.0300285,29.7770202 L92.0300285,29.7671008 L88.6691686,27.5316375" id="Fill-4" fill="#002D72" sketch:type="MSShapeGroup"></path>
                    <path d="M92.0291267,29.7770202 C92.0309302,29.7752167 92.031832,29.7734131 92.0336355,29.7680026 L92.0291267,29.766199 L92.0291267,29.7770202" id="Fill-5" fill="#002D72" sketch:type="MSShapeGroup"></path>
                    <path d="M95.3854778,12.8609025 L95.3854778,24.1797952 L95.3953972,24.1861076 C96.8607573,21.1498813 98.0429648,17.6077677 98.7084638,13.4885275 L98.5939402,13.4668853 C97.5316668,13.2432488 96.4603758,13.0439598 95.3854778,12.8609025" id="Fill-6" fill="#002D72" sketch:type="MSShapeGroup"></path>
                    <path d="M85.3101122,17.4743072 L85.3101122,25.297076 L88.6691686,27.5316375 L88.6691686,19.7088687 L85.3101122,17.4743072" id="Fill-7" fill="#002D72" sketch:type="MSShapeGroup"></path>
                    <path d="M92.0291267,21.9452337 L92.0291267,29.7671008 L92.0336355,29.7689043 C93.23478,28.1448344 94.3764083,26.2935209 95.3854778,24.203241 L95.3854778,24.180697 L92.0291267,21.9452337" id="Fill-8" fill="#002D72" sketch:type="MSShapeGroup"></path>
                    <path d="M95.3854778,24.203241 C95.3899866,24.1978304 95.3926919,24.1906164 95.3953972,24.1852058 L95.3854778,24.180697 L95.3854778,24.203241" id="Fill-9" fill="#002D72" sketch:type="MSShapeGroup"></path>
                    <path d="M74.5791671,25.8056687 C75.5711032,25.5306319 76.4431052,24.9778529 77.1104077,24.2311956 C76.7442931,24.0986368 76.3168588,23.9669799 75.8226943,23.8578669 C75.4574814,24.669451 74.9975838,25.3178165 74.5791671,25.8056687" id="Fill-10" fill="#002D72" sketch:type="MSShapeGroup"></path>
                    <path d="M69.2488631,24.2329991 C69.9161656,24.9796565 70.7908729,25.5342389 71.7837108,25.8074722 C71.3652941,25.3178165 70.9044947,24.669451 70.5383801,23.8560634 C70.0433138,23.9669799 69.6158795,24.0995386 69.2488631,24.2329991" id="Fill-11" fill="#002D72" sketch:type="MSShapeGroup"></path>
                    <path d="M72.692685,16.0846949 C72.3274721,16.4859781 71.9000378,17.0513817 71.5438426,17.7655757 C71.9036449,17.813369 72.2859912,17.8467341 72.692685,17.8611622 L72.692685,16.0846949" id="Fill-12" fill="#002D72" sketch:type="MSShapeGroup"></path>
                    <path d="M76.1617561,22.9416786 C76.7677388,23.0841567 77.2844474,23.2536876 77.7055693,23.4205132 C78.1005403,22.7604249 78.3584436,22.0137675 78.432388,21.2084957 L76.4728633,21.2084957 C76.4331858,21.835219 76.3222693,22.4150507 76.1617561,22.9416786" id="Fill-13" fill="#002D72" sketch:type="MSShapeGroup"></path>
                    <path d="M71.782809,15.6419306 C70.7899712,15.9142622 69.9161656,16.4697464 69.2479614,17.2164038 C69.6158795,17.3498643 70.042412,17.4806195 70.5374783,17.5906342 C70.9035929,16.7790501 71.3643923,16.1297829 71.782809,15.6419306" id="Fill-14" fill="#002D72" sketch:type="MSShapeGroup"></path>
                    <path d="M77.1095059,17.2164038 C76.4431052,16.4715499 75.5702014,15.9160657 74.5782653,15.6437342 C74.996682,16.1315864 75.4583832,16.7808536 75.8226943,17.5906342 C76.3168588,17.4806195 76.7442931,17.3480608 77.1095059,17.2164038" id="Fill-15" fill="#002D72" sketch:type="MSShapeGroup"></path>
                    <path d="M76.4719615,20.2400054 L78.4314862,20.2400054 C78.3575419,19.4356354 78.1005403,18.6871745 77.7046676,18.0279879 C77.2835456,18.1939117 76.7677388,18.3634426 76.1608543,18.5059207 C76.3213676,19.0334504 76.4322841,19.6123804 76.4719615,20.2400054" id="Fill-16" fill="#002D72" sketch:type="MSShapeGroup"></path>
                    <path d="M73.6620771,25.3692168 C74.0281917,24.9679336 74.4601347,24.40253 74.8181335,23.6838272 C74.4565277,23.6360339 74.0705744,23.6026688 73.6620771,23.5864371 L73.6620771,25.3692168" id="Fill-17" fill="#002D72" sketch:type="MSShapeGroup"></path>
                    <path d="M72.692685,21.2084957 L70.8594067,21.2084957 C70.9017894,21.7702923 71.0118041,22.286099 71.1660051,22.7568178 C71.6349204,22.684677 72.1444148,22.6368837 72.692685,22.617045 L72.692685,21.2084957" id="Fill-18" fill="#002D72" sketch:type="MSShapeGroup"></path>
                    <path d="M73.6620771,22.6179468 C74.2121507,22.6368837 74.7252522,22.684677 75.195971,22.7568178 C75.3492702,22.2870008 75.4601867,21.771194 75.5016677,21.2093975 L73.6620771,21.2093975 L73.6620771,22.6179468" id="Fill-19" fill="#002D72" sketch:type="MSShapeGroup"></path>
                    <path d="M74.8217405,17.7655757 C74.4637418,17.0432658 74.0299952,16.4742552 73.6620771,16.0747755 L73.6620771,17.8602605 C74.0723779,17.8467341 74.4601347,17.813369 74.8217405,17.7655757" id="Fill-20" fill="#002D72" sketch:type="MSShapeGroup"></path>
                    <path d="M75.5016677,20.2400054 C75.4601867,19.6773071 75.3510737,19.1605985 75.1977745,18.6907815 C74.726154,18.7620206 74.2130525,18.8116174 73.6620771,18.8314561 L73.6620771,20.2400054 L75.5016677,20.2400054" id="Fill-21" fill="#002D72" sketch:type="MSShapeGroup"></path>
                    <path d="M71.5438426,23.6829254 C71.9000378,24.3944142 72.3265704,24.9598177 72.6917832,25.3638063 L72.6917832,23.5864371 C72.2850894,23.6035705 71.9027431,23.6360339 71.5438426,23.6829254" id="Fill-22" fill="#002D72" sketch:type="MSShapeGroup"></path>
                    <path d="M70.1993183,18.5059207 C69.5906302,18.3634426 69.0748234,18.1939117 68.6509962,18.0279879 C68.2587306,18.6871745 68.0008272,19.4356354 67.9259811,20.2400054 L69.8882111,20.2400054 C69.9278885,19.6123804 70.038805,19.0334504 70.1993183,18.5059207" id="Fill-23" fill="#002D72" sketch:type="MSShapeGroup"></path>
                    <path d="M72.692685,18.8314561 C72.1444148,18.8125191 71.6349204,18.7629223 71.1660051,18.6916833 C71.0118041,19.1615003 70.9017894,19.6773071 70.8594067,20.2400054 L72.692685,20.2400054 L72.692685,18.8314561" id="Fill-24" fill="#002D72" sketch:type="MSShapeGroup"></path>
                    <path d="M69.8891128,21.2084957 L67.9259811,21.2084957 C68.0017289,22.0137675 68.2578288,22.7604249 68.651898,23.4205132 C69.0757252,23.2536876 69.591532,23.0841567 70.1993183,22.9398751 C70.0397068,22.4150507 69.9287903,21.835219 69.8891128,21.2084957" id="Fill-25" fill="#002D72" sketch:type="MSShapeGroup"></path>
                    <path d="M73.1778319,14.4777584 C76.6225555,14.4777584 79.4252258,17.279527 79.4252258,20.7242506 C79.4252258,24.1653671 76.6225555,26.969841 73.1778319,26.969841 C69.7340101,26.969841 66.9322415,24.1653671 66.9322415,20.7242506 C66.9322415,17.279527 69.7340101,14.4777584 73.1778319,14.4777584 M63.607452,13.4948399 C66.0737658,28.736389 75.6152894,36.1741063 80.3675651,38.7946211 L80.3675651,11.6696774 C74.7505015,11.7219795 69.1541783,12.3234535 63.723779,13.4695906 L63.607452,13.4948399" id="Fill-26" fill="#002D72" sketch:type="MSShapeGroup"></path>
                    <path d="M94.6586592,9.64161896 C90.2896315,8.81199967 85.2704348,8.55770332 81.1602123,8.55770332 L81.1566052,8.55770332 C77.0463827,8.55770332 72.0262842,8.81199967 67.6590601,9.64161896 C67.494038,9.67498408 67.3479529,9.52439015 67.4390306,9.34944869 L70.3129401,3.00466464 C70.3417964,2.94605024 72.1985204,2.0271567 72.1985204,2.0271567 C74.5584266,1.53118865 78.4432091,1.74941459 81.1538999,2.74676126 L81.1638193,2.74676126 C83.8745102,1.74941459 87.7583909,1.53118865 90.1182971,2.0271567 C90.1182971,2.0271567 91.9741194,2.94605024 92.0038774,3.00466464 L94.8759833,9.34944869 C94.9688646,9.52439015 94.8236813,9.67498408 94.6586592,9.64161896 M98.5831191,1.84319764 L98.5704945,1.83688532 C92.9534308,0.638446149 87.1298641,0.00180352019 81.1584088,0.00180352019 C75.1779358,0.00180352019 69.347155,0.640249669 63.7255826,1.84319764 L63.701235,1.84950996 C63.3044606,1.94780181 63.0104868,2.30580057 63.0104868,2.73413661 L63.0122903,5.88488639 C63.0122903,7.95442582 63.137635,9.90763819 63.3639768,11.7598534 C69.2019716,10.5244421 75.1887569,9.90763819 81.1746404,9.90763819 C87.1533099,9.90763819 93.1310776,10.5244421 98.955546,11.7544429 C99.1791825,9.90583467 99.3054289,7.9526223 99.3054289,5.88488639 L99.3063307,2.73413661 C99.3063307,2.29497945 98.9961252,1.92796309 98.5831191,1.84319764" id="Fill-27" fill="#002D72" sketch:type="MSShapeGroup"></path>
                    <path d="M89.3698362,3.11558114 L90.5781947,6.35109636 C87.7628997,5.96424128 85.4300463,6.1400845 81.9862245,7.26818638 L81.9862245,7.57117778 C85.2406767,7.4485384 89.3563098,7.26728462 92.6838046,7.98238038 L90.870365,3.81173993 L89.3698362,3.11558114" id="Fill-28" fill="#002D72" sketch:type="MSShapeGroup"></path>
                    <path d="M71.6989453,6.35109636 L72.9073039,3.11558114 L71.4076768,3.81264169 L69.5942373,7.98328214 C72.9199285,7.26728462 77.0364633,7.4485384 80.2900138,7.57207954 L80.2900138,7.26908814 C76.8470937,6.1400845 74.5133386,5.96424128 71.6989453,6.35109636" id="Fill-29" fill="#002D72" sketch:type="MSShapeGroup"></path>
                    <path d="M4.64226098,49.2162626 C4.64226098,46.3676024 4.38706287,46.0601022 2.87210591,45.9311506 L2.23185624,45.880652 C2.07765526,45.7778513 2.12905559,45.3161502 2.28325657,45.2395006 C3.77025897,45.2899991 4.64226098,45.3161502 5.7198643,45.3161502 C6.74696905,45.3161502 7.61897106,45.2899991 8.64427229,45.2395006 C8.79847327,45.3161502 8.85077535,45.7778513 8.69657438,45.880652 L8.31152282,45.9311506 C6.79836937,46.1376536 6.74696905,46.4947506 6.74696905,49.2162626 L6.74696905,58.7343404 C6.74696905,60.7596936 6.64326664,62.5298487 6.15721794,63.7093509 C5.30956345,65.7635604 3.48890982,67.4047637 1.10195084,67.4047637 C0.795352406,67.4047637 0,67.3786127 0,66.8655112 C0,66.4290593 0.383248041,65.6842055 0.922500579,65.6842055 C1.23090253,65.6842055 1.53930449,65.734704 1.87295572,65.8393082 C2.23185624,65.9412071 2.59075676,66.0187585 2.94965728,66.0187585 C3.48890982,66.0187585 3.79731177,65.7103565 3.97676203,65.351456 C4.56651313,64.144901 4.64226098,60.2979924 4.64226098,58.9119872 L4.64226098,49.2162626" id="Fill-30" fill="#002D72" sketch:type="MSShapeGroup"></path>
                    <path d="M21.6927409,55.7116406 C21.6927409,52.1415723 20.1128572,48.2883514 15.9791889,48.2883514 C13.7283957,48.2883514 10.8075948,49.8258524 10.8075948,54.5655035 C10.8075948,57.7667518 12.3649345,61.9238659 16.629358,61.9238659 C19.226427,61.9238659 21.6927409,59.9760641 21.6927409,55.7116406 M8.64246877,55.2571535 C8.64246877,50.9296068 11.8897069,47.6174419 16.347107,47.6174419 C21.346465,47.6174419 23.8569651,51.2316964 23.8569651,55.0407311 C23.8569651,59.412464 20.5249616,62.5929719 16.347107,62.5929719 C11.5425292,62.5929719 8.64246877,59.1527571 8.64246877,55.2571535" id="Fill-31" fill="#002D72" sketch:type="MSShapeGroup"></path>
                    <path d="M28.7733612,55.2571535 C27.7354353,55.2571535 27.6912491,55.3013397 27.6912491,55.9515088 L27.6912491,59.0012614 C27.6912491,61.2736968 27.7994603,61.5766882 29.0105241,61.7065417 L29.6390509,61.7723702 C29.7689043,61.8580374 29.7256198,62.2475978 29.5957664,62.3125245 C28.4270853,62.2683382 27.6912491,62.2475978 26.8462999,62.2475978 C25.9165852,62.2475978 25.1798472,62.291784 24.3357997,62.3125245 C24.206848,62.2475978 24.1635636,61.9004201 24.293417,61.7723702 L24.6613351,61.7065417 C25.8723989,61.4901193 25.9165852,61.2736968 25.9165852,59.0012614 L25.9165852,51.2100542 C25.9165852,48.9376187 25.7650895,48.5706024 24.6396929,48.4831316 L24.0769946,48.4398471 C23.9462394,48.3532782 23.9904256,47.9637178 24.1193773,47.8987911 C25.1798472,47.9195316 25.9165852,47.9637178 26.8462999,47.9637178 C27.6912491,47.9637178 28.4270853,47.9429773 29.3568,47.8987911 C29.4875552,47.9637178 29.5317414,48.3532782 29.4000844,48.4398471 L28.9888818,48.4831316 C27.7354353,48.6129851 27.6912491,48.9376187 27.6912491,51.2100542 L27.6912491,53.6998138 C27.6912491,54.3698215 27.7354353,54.3923655 28.7733612,54.3923655 L34.9630425,54.3923655 C36.0018701,54.3923655 36.0442528,54.3698215 36.0442528,53.6998138 L36.0442528,51.2100542 C36.0442528,48.9376187 36.0018701,48.6129851 34.7249778,48.4831316 L34.3137752,48.4398471 C34.1839218,48.3532782 34.2272063,47.9637178 34.3570597,47.8987911 C35.3526029,47.9429773 36.0875373,47.9637178 36.9748693,47.9637178 C37.8198185,47.9637178 38.5556547,47.9429773 39.5295556,47.8987911 C39.6585073,47.9637178 39.7026936,48.3532782 39.5728401,48.4398471 L39.118353,48.4831316 C37.863103,48.6129851 37.8198185,48.9376187 37.8198185,51.2100542 L37.8198185,59.0012614 C37.8198185,61.2736968 37.863103,61.555046 39.118353,61.7065417 L39.6377668,61.7723702 C39.7667185,61.8580374 39.7243358,62.2475978 39.5935806,62.3125245 C38.5556547,62.2683382 37.8198185,62.2475978 36.9748693,62.2475978 C36.0875373,62.2475978 35.3093184,62.2683382 34.3570597,62.3125245 C34.2272063,62.2475978 34.1839218,61.9004201 34.3137752,61.7723702 L34.7249778,61.7065417 C36.0442528,61.4901193 36.0442528,61.2736968 36.0442528,59.0012614 L36.0442528,55.9515088 C36.0442528,55.3013397 36.0018701,55.2571535 34.9630425,55.2571535 L28.7733612,55.2571535" id="Fill-32" fill="#002D72" sketch:type="MSShapeGroup"></path>
                    <path d="M54.4203201,58.5684166 C54.4203201,59.2185856 54.4203201,61.7931107 54.4852468,62.3549072 C54.4428641,62.4856624 54.3130107,62.5929719 54.074946,62.5929719 C53.8143373,62.2268573 53.1876141,61.4693788 51.304739,59.325895 L46.2837388,53.6123431 C45.6984964,52.9414335 44.2277257,51.1667697 43.7732386,50.6924439 L43.7299542,50.6924439 C43.6433852,50.951249 43.6217429,51.4481188 43.6217429,52.0973861 L43.6217429,56.8162967 C43.6217429,57.8325803 43.6433852,60.6469736 44.0113033,61.2944373 C44.1420585,61.5343055 44.5740016,61.6632572 45.1150577,61.7065417 L45.7850654,61.7723702 C45.9158206,61.9446064 45.8941784,62.205215 45.7426827,62.3125245 C44.7687818,62.26924 44.0113033,62.2475978 43.2105403,62.2475978 C42.3015662,62.2475978 41.7163239,62.26924 40.9588454,62.3125245 C40.8082514,62.205215 40.7866092,61.9004201 40.9164627,61.7723702 L41.5008032,61.7065417 C41.9985748,61.641615 42.3448506,61.5117615 42.4530619,61.2736968 C42.7551515,60.4954779 42.734411,57.8551243 42.734411,56.8162967 L42.734411,50.5616887 C42.734411,49.9548041 42.7136705,49.4994153 42.2582817,49.0034472 C41.9552903,48.7004558 41.4367782,48.5480584 40.9164627,48.4831316 L40.5476428,48.4407489 C40.4186911,48.3108954 40.4186911,47.9871636 40.591829,47.8987911 C41.5008032,47.9637178 42.647842,47.9637178 43.0374024,47.9637178 C43.3836783,47.9637178 43.7515964,47.9429773 44.0320438,47.8987911 C44.4657904,49.0034472 47.019575,51.8602232 47.733769,52.6609862 L49.8321647,55.0190888 C51.3254795,56.6855415 52.3859493,57.897507 53.4040365,58.9363347 L53.4464192,58.9363347 C53.5338899,58.8290252 53.5338899,58.4818476 53.5338899,58.0273605 L53.5338899,53.3959206 C53.5338899,52.3787352 53.5113459,49.5661455 53.1010451,48.9159765 C52.9711916,48.7211963 52.624014,48.5913428 51.7592261,48.4831316 L51.3913079,48.4407489 C51.2398122,48.3108954 51.2605527,47.9637178 51.4336907,47.8987911 C52.4301356,47.9429773 53.1659718,47.9637178 53.988377,47.9637178 C54.9189934,47.9637178 55.48079,47.9429773 56.2166262,47.8987911 C56.3897642,48.0079041 56.3897642,48.3108954 56.2608125,48.4407489 L55.9578211,48.4831316 C55.2652693,48.5913428 54.8315227,48.7653825 54.7449537,48.9376187 C54.3779374,49.7167394 54.4203201,52.4003775 54.4203201,53.3959206 L54.4203201,58.5684166" id="Fill-33" fill="#002D72" sketch:type="MSShapeGroup"></path>
                    <g id="Group-37" transform="translate(0.000000, 45.088005)">
                        <mask id="mask-2" sketch:name="Clip 35" fill="white">
                            <use xlink:href="#path-1"></use>
                        </mask>
                        <g id="Clip-35"></g>
                        <path d="M60.1401844,17.504967 C58.322236,17.504967 57.176099,16.9431705 56.7639946,16.7051058 C56.5051895,16.2280747 56.2229385,14.6923773 56.1787523,13.6760936 C56.288767,13.5227944 56.6124989,13.4804117 56.6990679,13.6111669 C57.0237015,14.7131177 57.9101317,16.835861 60.4215336,16.835861 C62.2394819,16.835861 63.1277156,15.6446359 63.1277156,14.3470031 C63.1277156,13.3938427 62.9329354,12.3342746 61.35215,11.3161875 L59.296137,9.97346668 C58.2149266,9.26017444 56.9596765,8.02566487 56.9596765,6.25190275 C56.9596765,4.19588973 58.5603007,2.53033883 61.3737922,2.53033883 C62.0447017,2.53033883 62.8247242,2.66019229 63.3874225,2.81078622 C63.6678699,2.89915871 63.9708613,2.94154144 64.1430975,2.94154144 C64.3378777,3.46005349 64.5335596,4.67292082 64.5335596,5.58099324 C64.4469906,5.71174846 64.1007148,5.77577342 63.9916018,5.64682173 C63.7111544,4.60709234 63.1277156,3.20034659 61.0491586,3.20034659 C58.9282188,3.20034659 58.4737317,4.60709234 58.4737317,5.604439 C58.4737317,6.85788554 59.5134611,7.76685972 60.3133223,8.26553305 L62.0447017,9.34674341 C63.4090648,10.1907909 64.749982,11.4460409 64.749982,13.5020539 C64.749982,15.8827006 62.9536759,17.504967 60.1401844,17.504967" id="Fill-34" fill="#002D72" sketch:type="MSShapeGroup" mask="url(#mask-2)"></path>
                        <path d="M77.5955546,8.87512288 C76.3646521,8.87512288 76.3132517,8.92471968 76.3132517,9.69392105 L76.3132517,13.3117826 C76.3132517,16.0044382 76.4413017,16.3642405 77.8778055,16.5193432 L78.6226594,16.5968946 C78.7759586,16.6987935 78.72546,17.1604947 78.5703573,17.2353407 C77.1852538,17.1848422 76.3132517,17.1604947 75.3131998,17.1604947 C74.2094454,17.1604947 73.3365417,17.2109932 72.3364897,17.2353407 C72.1822887,17.1604947 72.1308884,16.749292 72.2850894,16.5968946 L72.7215413,16.5193432 C74.1571434,16.2614398 74.2094454,16.0044382 74.2094454,13.3117826 L74.2094454,4.07595564 C74.2094454,1.38239823 74.0299952,0.945946342 72.696292,0.844047451 L72.0289895,0.792647125 C71.8747885,0.690748234 71.9261889,0.228145305 72.0803899,0.151495696 C73.3365417,0.176744979 74.2094454,0.228145305 75.3131998,0.228145305 C76.3132517,0.228145305 77.1852538,0.202896022 78.2890081,0.151495696 C78.4423073,0.228145305 78.4937077,0.690748234 78.3386049,0.792647125 L77.8516545,0.844047451 C76.3646521,0.999150188 76.3132517,1.38239823 76.3132517,4.07595564 L76.3132517,7.02651468 C76.3132517,7.82186708 76.3646521,7.84621461 77.5955546,7.84621461 L84.9331765,7.84621461 C86.164079,7.84621461 86.2154794,7.82186708 86.2154794,7.02651468 L86.2154794,4.07595564 C86.2154794,1.38239823 86.164079,0.999150188 84.6500238,0.844047451 L84.1621716,0.792647125 C84.0088724,0.690748234 84.0602727,0.228145305 84.2144737,0.151495696 C85.3930742,0.202896022 86.2668797,0.228145305 87.318332,0.228145305 C88.3192857,0.228145305 89.1912877,0.202896022 90.3464424,0.151495696 C90.4997416,0.228145305 90.5511419,0.690748234 90.3960392,0.792647125 L89.8585902,0.844047451 C88.370686,0.999150188 88.3192857,1.38239823 88.3192857,4.07595564 L88.3192857,13.3117826 C88.3192857,16.0044382 88.370686,16.3389912 89.8585902,16.5193432 L90.4735906,16.5968946 C90.6277915,16.6987935 90.577293,17.1604947 90.4221902,17.2353407 C89.1912877,17.1848422 88.3192857,17.1604947 87.318332,17.1604947 C86.2668797,17.1604947 85.3434774,17.1848422 84.2144737,17.2353407 C84.0602727,17.1604947 84.0088724,16.749292 84.1621716,16.5968946 L84.6500238,16.5193432 C86.2154794,16.2614398 86.2154794,16.0044382 86.2154794,13.3117826 L86.2154794,9.69392105 C86.2154794,8.92471968 86.164079,8.87512288 84.9331765,8.87512288 L77.5955546,8.87512288" id="Fill-36" fill="#002D72" sketch:type="MSShapeGroup" mask="url(#mask-2)"></path>
                    </g>
                    <path d="M103.361546,55.7116406 C103.361546,52.1415723 101.782564,48.2883514 97.6479939,48.2883514 C95.3981024,48.2883514 92.4763997,49.8258524 92.4763997,54.5655035 C92.4763997,57.7667518 94.0346412,61.9238659 98.2981629,61.9238659 C100.896134,61.9238659 103.361546,59.9760641 103.361546,55.7116406 M90.3112737,55.2571535 C90.3112737,50.9296068 93.5594136,47.6174419 98.015912,47.6174419 C103.016172,47.6174419 105.52577,51.2316964 105.52577,55.0407311 C105.52577,59.412464 102.193767,62.5929719 98.015912,62.5929719 C93.212236,62.5929719 90.3112737,59.1527571 90.3112737,55.2571535" id="Fill-38" fill="#002D72" sketch:type="MSShapeGroup"></path>
                    <path d="M109.443016,59.0021632 C109.443016,61.2745986 109.4863,61.5559478 110.871404,61.7074435 L111.455744,61.7723702 C111.585598,61.8796796 111.543215,62.2484995 111.41246,62.3134262 C110.178852,62.26924 109.464658,62.2484995 108.598969,62.2484995 C107.689994,62.2484995 106.910874,62.26924 105.959517,62.3134262 C105.828761,62.2484995 105.785477,61.9013219 105.916232,61.7723702 L106.370719,61.7074435 C107.625068,61.5352073 107.668352,61.2745986 107.668352,59.0021632 L107.668352,51.0170775 C107.668352,49.1765851 107.625068,48.808667 106.651167,48.7004558 L105.872046,48.6129851 C105.72055,48.4840334 105.742193,48.1593998 105.916232,48.0728308 C107.062369,47.9204333 108.40509,47.8987911 110.200494,47.8987911 C111.996801,47.8987911 113.33862,48.1368557 114.355805,48.7653825 C115.351348,49.3930076 116.087184,50.5184042 116.087184,52.0108171 C116.087184,54.0019034 114.854478,54.9992501 113.92296,55.4528354 C112.970701,55.9073225 111.824564,56.1012009 110.936331,56.1012009 C110.784835,56.0380777 110.784835,55.7125423 110.914688,55.6701596 C113.252051,55.236413 114.096098,53.9153345 114.096098,52.0333611 C114.096098,49.9331619 112.86249,48.5715041 110.612599,48.5715041 C109.464658,48.5715041 109.443016,48.6562696 109.443016,49.3506248 L109.443016,59.0021632" id="Fill-39" fill="#002D72" sketch:type="MSShapeGroup"></path>
                    <path d="M118.447992,51.2100542 C118.447992,48.9376187 118.403806,48.5913428 117.149458,48.4840334 L116.6075,48.4407489 C116.477646,48.3532782 116.521833,47.9637178 116.650784,47.8987911 C117.711254,47.9429773 118.403806,47.9637178 119.376805,47.9637178 C120.221754,47.9637178 120.957591,47.9429773 121.888207,47.8987911 C122.018061,47.9637178 122.062247,48.3532782 121.93059,48.4407489 L121.520289,48.4840334 C120.265039,48.6129851 120.221754,48.9376187 120.221754,51.2100542 L120.221754,53.7007155 C120.221754,54.1110164 120.265039,54.5213172 120.504005,54.5213172 C120.697884,54.5213172 120.957591,54.3923655 121.109086,54.2832526 C121.412078,54.0244474 121.974776,53.4608474 122.213742,53.2444249 L124.550203,50.9296068 C124.961405,50.5391446 126.021875,49.4353903 126.238298,49.1333007 C126.347411,48.9809032 126.390695,48.872692 126.390695,48.786123 C126.390695,48.7004558 126.304126,48.6355291 126.021875,48.5706024 L125.437535,48.4407489 C125.286039,48.2883514 125.307681,48.0079041 125.480819,47.8987911 C126.238298,47.9429773 127.103987,47.9637178 127.861466,47.9637178 C128.618944,47.9637178 129.354781,47.9429773 130.003146,47.8987911 C130.155544,48.0079041 130.177186,48.3108954 130.047332,48.4407489 C129.484634,48.4840334 128.641488,48.7004558 128.035506,49.0467317 C127.429523,49.3921058 126.215754,50.4092912 125.00469,51.5572318 L123.056888,53.3959206 C122.753897,53.7007155 122.559117,53.894594 122.559117,54.0668301 C122.559117,54.2201294 122.68897,54.3923655 122.970319,54.7377397 C125.026332,57.0958423 126.692785,59.0445459 128.381782,60.8192098 C128.901195,61.3386236 129.294363,61.6208745 130.030199,61.7074435 L130.447714,61.7723702 C130.600111,61.8796796 130.555925,62.2475978 130.403528,62.3134262 C129.840829,62.26924 129.247471,62.2475978 128.230286,62.2475978 C127.342954,62.2475978 126.583672,62.26924 125.589031,62.3134262 C125.437535,62.26924 125.37351,61.9004201 125.502462,61.7723702 L126.000233,61.6839977 C126.304126,61.641615 126.519647,61.5766882 126.519647,61.4693788 C126.519647,61.3386236 126.368151,61.1663874 126.215754,60.9707055 C125.804551,60.4512916 125.242755,59.8669511 124.420349,58.9363347 L122.68897,56.9885329 C121.455362,55.6043311 121.109086,55.1714863 120.589673,55.1714863 C120.265039,55.1714863 120.221754,55.4528354 120.221754,56.2103139 L120.221754,59.0021632 C120.221754,61.2736968 120.265039,61.5766882 121.477004,61.7074435 L122.062247,61.7723702 C122.190297,61.8589391 122.148816,62.2475978 122.018061,62.3134262 C120.957591,62.26924 120.221754,62.2475978 119.376805,62.2475978 C118.490375,62.2475978 117.754539,62.26924 116.867207,62.3134262 C116.738255,62.2475978 116.694069,61.9238659 116.823922,61.7723702 L117.257669,61.7074435 C118.403806,61.5343055 118.447992,61.2736968 118.447992,59.0021632 L118.447992,51.2100542" id="Fill-40" fill="#002D72" sketch:type="MSShapeGroup"></path>
                    <path d="M133.302686,51.2542404 C133.302686,48.9601627 133.259402,48.5913428 131.981608,48.4840334 L131.442355,48.4407489 C131.3116,48.3532782 131.354885,47.9646196 131.483836,47.8987911 C132.56685,47.9429773 133.302686,47.9646196 134.211661,47.9646196 C135.07735,47.9646196 135.813186,47.9429773 136.894397,47.8987911 C137.025152,47.9646196 137.068437,48.3532782 136.938583,48.4407489 L136.397527,48.4840334 C135.120635,48.5913428 135.07735,48.9601627 135.07735,51.2542404 L135.07735,58.9579769 C135.07735,61.2529564 135.120635,61.5559478 136.397527,61.7074435 L136.938583,61.7723702 C137.068437,61.8589391 137.025152,62.2475978 136.894397,62.3134262 C135.813186,62.26924 135.07735,62.2475978 134.211661,62.2475978 C133.302686,62.2475978 132.64891,62.26924 131.5677,62.3134262 C131.437846,62.2475978 131.394562,61.9013219 131.524415,61.7723702 L131.981608,61.7074435 C133.259402,61.5559478 133.302686,61.2529564 133.302686,58.9579769 L133.302686,51.2542404" id="Fill-41" fill="#002D72" sketch:type="MSShapeGroup"></path>
                    <path d="M152.023226,58.5684166 C152.023226,59.2185856 152.023226,61.7931107 152.089054,62.3549072 C152.04577,62.4856624 151.915917,62.5929719 151.677852,62.5929719 C151.418145,62.2268573 150.79052,61.4693788 148.907645,59.325895 L143.886645,53.6123431 C143.302304,52.9414335 141.82973,51.1667697 141.376145,50.6924439 L141.333762,50.6924439 C141.246291,50.951249 141.223747,51.4481188 141.223747,52.0973861 L141.223747,56.8162967 C141.223747,57.8325803 141.246291,60.6469736 141.614209,61.2944373 C141.744964,61.5343055 142.176907,61.6632572 142.717964,61.7065417 L143.388873,61.7723702 C143.517825,61.9446064 143.496183,62.205215 143.345589,62.3125245 C142.371688,62.26924 141.614209,62.2475978 140.813446,62.2475978 C139.905374,62.2475978 139.320132,62.26924 138.563555,62.3125245 C138.411157,62.205215 138.389515,61.9004201 138.519369,61.7723702 L139.104611,61.7065417 C139.601481,61.641615 139.947757,61.5117615 140.055968,61.2736968 C140.358959,60.4954779 140.337317,57.8551243 140.337317,56.8162967 L140.337317,50.5616887 C140.337317,49.9548041 140.315675,49.4994153 139.861188,49.0034472 C139.558196,48.7004558 139.038782,48.5480584 138.519369,48.4831316 L138.15145,48.4407489 C138.021597,48.3108954 138.021597,47.9871636 138.195637,47.8987911 C139.104611,47.9637178 140.250748,47.9637178 140.640308,47.9637178 C140.986584,47.9637178 141.354502,47.9429773 141.635851,47.8987911 C142.069598,49.0034472 144.622481,51.8602232 145.335773,52.6609862 L147.435972,55.0190888 C148.929287,56.6855415 149.988855,57.897507 151.006942,58.9363347 L151.050227,58.9363347 C151.136796,58.8290252 151.136796,58.4818476 151.136796,58.0273605 L151.136796,53.3959206 C151.136796,52.3787352 151.115154,49.5661455 150.703951,48.9159765 C150.574098,48.7211963 150.228723,48.5913428 149.363034,48.4831316 L148.995116,48.4407489 C148.842718,48.3108954 148.86436,47.9637178 149.036597,47.8987911 C150.033041,47.9429773 150.767976,47.9637178 151.591283,47.9637178 C152.522801,47.9637178 153.084598,47.9429773 153.819532,47.8987911 C153.993572,48.0079041 153.993572,48.3108954 153.863718,48.4407489 L153.560727,48.4831316 C152.868175,48.5913428 152.43533,48.7653825 152.34786,48.9376187 C151.979942,49.7167394 152.023226,52.4003775 152.023226,53.3959206 L152.023226,58.5684166" id="Fill-42" fill="#002D72" sketch:type="MSShapeGroup"></path>
                    <path d="M157.707922,62.5929719 C155.889072,62.5929719 154.742934,62.0311753 154.33083,61.7931107 C154.072025,61.3160796 153.789774,59.7803821 153.745588,58.7640985 C153.855603,58.6107993 154.180236,58.5684166 154.265903,58.6991718 C154.590537,59.8011226 155.477869,61.9238659 157.989271,61.9238659 C159.806317,61.9238659 160.694551,60.7326408 160.694551,59.435008 C160.694551,58.4818476 160.498869,57.4222795 158.918985,56.4041923 L156.863874,55.0614715 C155.78086,54.3481793 154.52561,53.1136697 154.52561,51.3399076 C154.52561,49.2838946 156.127136,47.6183437 158.941529,47.6183437 C159.611537,47.6183437 160.390658,47.7481971 160.954258,47.8987911 C161.235607,47.9871636 161.537697,48.0295463 161.709933,48.0295463 C161.905615,48.5480584 162.100395,49.7609257 162.100395,50.6689981 C162.012924,50.7997533 161.668452,50.8637783 161.559339,50.7348266 C161.27799,49.6950972 160.694551,48.2883514 158.616896,48.2883514 C156.495054,48.2883514 156.040567,49.6950972 156.040567,50.6924439 C156.040567,51.9458904 157.080297,52.8548646 157.879256,53.3535379 L159.611537,54.4347483 C160.974998,55.2787957 162.316818,56.5340458 162.316818,58.5900588 C162.316818,60.9707055 160.520511,62.5929719 157.707922,62.5929719" id="Fill-43" fill="#002D72" sketch:type="MSShapeGroup"></path>
                    <path d="M24.9769512,78.7326741 C25.4918562,78.7326741 25.8273109,78.6659438 26.0293052,78.4873953 C26.2412188,78.297124 26.319672,78.1510388 26.3864022,78.0283995 C26.4648553,77.9950343 26.5883965,78.0283995 26.6325827,78.0951297 C26.4873993,78.654221 26.2863068,79.236758 26.1185795,79.4603945 C25.6595836,79.4378505 25.1897666,79.4270294 24.6748615,79.4270294 L23.0525951,79.4270294 C22.4267736,79.4270294 22.057052,79.4378505 21.8108715,79.4603945 C21.7892292,79.4486716 21.7333201,79.4044854 21.7333201,79.3152111 C21.7333201,79.2809442 21.7892292,79.236758 21.8559595,79.19167 C22.3708645,78.8562152 22.7396844,78.4756725 23.5675001,77.5811264 C24.3060417,76.7866758 25.1672226,75.7018584 25.1672226,74.5052228 C25.1672226,73.4871356 24.6748615,72.8712335 23.7685926,72.8712335 C23.0976831,72.8712335 22.617045,73.3302293 22.3149554,73.989416 C22.2139582,74.0462269 22.0462309,73.989416 22.0462309,73.8442326 C22.4042296,72.8595106 23.2879545,72.2670542 24.2952205,72.2670542 C25.4134031,72.2670542 26.1411235,73.0164168 26.1411235,74.0913149 C26.1411235,74.7838666 25.8164898,75.5449521 24.943586,76.5513164 L24.2609537,77.3349459 C23.3438636,78.3863982 23.2428665,78.5649467 23.2428665,78.6325787 C23.2428665,78.7110318 23.2987756,78.7326741 23.5900441,78.7326741 L24.9769512,78.7326741" id="Fill-44" fill="#002D72" sketch:type="MSShapeGroup"></path>
                    <path d="M29.3820492,74.2581405 C29.3820492,73.497055 29.3486841,73.2517762 28.8464038,73.2066882 L28.3089547,73.1616002 C28.2196805,73.1165122 28.2088594,72.9614095 28.2972319,72.9163215 C29.2377676,72.7476923 29.8518663,72.4573256 30.1431348,72.2670542 C30.1891245,72.2670542 30.232409,72.2886964 30.254953,72.3229633 C30.232409,72.5240558 30.2107668,73.0831471 30.2107668,73.7206915 L30.2107668,78.0617646 C30.2107668,78.9229455 30.232409,79.1132168 30.6914049,79.146582 L31.1621237,79.1808489 C31.2288539,79.2475791 31.217131,79.4261276 31.1395797,79.4603945 C30.7031278,79.4378505 30.1999457,79.4261276 29.80768,79.4261276 C29.4045933,79.4261276 28.9014111,79.4378505 28.4649592,79.4603945 C28.3865061,79.4261276 28.375685,79.2475791 28.443317,79.1808489 L28.9014111,79.146582 C29.3721299,79.1132168 29.3820492,78.9229455 29.3820492,78.0617646 L29.3820492,74.2581405" id="Fill-45" fill="#002D72" sketch:type="MSShapeGroup"></path>
                    <path d="M32.8375939,76.4340876 C32.7203651,76.2979218 32.6355997,75.8479435 32.641912,75.4430533 C32.6815894,75.3781265 32.7925059,75.3709124 32.8439063,75.4169022 C32.9620368,75.7496517 33.3137233,76.447614 33.9530712,76.447614 C34.4490392,76.447614 34.7294866,76.1482297 34.7294866,75.7496517 C34.7294866,75.3781265 34.5527416,75.0778404 34.0639877,74.8037053 L33.7835403,74.6477008 C33.2938845,74.3735658 32.863745,73.9749878 32.863745,73.3888438 C32.863745,72.7422818 33.3461866,72.1949134 34.2984453,72.1949134 C34.6384089,72.1949134 34.8854911,72.2733665 35.1920896,72.3319809 C35.2642304,72.4753608 35.3291571,72.9064021 35.3291571,73.2130005 C35.2966937,73.2707132 35.1794649,73.2779273 35.1208505,73.2319375 C35.0225587,72.8928757 34.7944134,72.4564238 34.2398309,72.4564238 C33.7186136,72.4564238 33.5030929,72.7954856 33.5030929,73.1408597 C33.5030929,73.414093 33.6924625,73.7089686 34.1226021,73.9362121 L34.5274924,74.1517328 C34.9513196,74.3735658 35.4202349,74.7775543 35.4202349,75.4367409 C35.4202349,76.180693 34.8530278,76.7091244 33.9079832,76.7091244 C33.307411,76.7091244 32.9683492,76.5125407 32.8375939,76.4340876" id="Fill-46" fill="#002D72" sketch:type="MSShapeGroup"></path>
                    <path d="M38.1381398,72.8468859 C38.1381398,72.5727509 38.1318275,72.5601262 37.9622966,72.5601262 L37.5970837,72.5601262 C36.9965115,72.5601262 36.8206683,72.632267 36.5789966,73.1597967 C36.5339086,73.1994741 36.396841,73.1796354 36.37069,73.1147087 C36.4816065,72.7621205 36.5789966,72.358132 36.6249863,72.1290849 C36.6385128,72.1101479 36.6646638,72.1038356 36.6971272,72.1038356 C36.7232782,72.1038356 36.7485275,72.1101479 36.7620539,72.1290849 C36.7945172,72.2923035 36.885595,72.2995176 37.3301627,72.2995176 L39.990355,72.2995176 C40.3104799,72.2995176 40.40787,72.2796788 40.4863231,72.1290849 C40.5124741,72.1164603 40.5386252,72.1038356 40.5647762,72.1038356 C40.6035519,72.1038356 40.636917,72.1164603 40.6495417,72.136299 C40.5837132,72.40322 40.5323129,72.9641147 40.5512498,73.1724213 C40.5187864,73.2256252 40.40787,73.2382498 40.3492556,73.1931618 C40.2644901,72.6836674 40.140949,72.5601262 39.4429867,72.5601262 L39.0714615,72.5601262 C38.9010288,72.5601262 38.8947165,72.5727509 38.8947165,72.8468859 L38.8947165,75.6639845 C38.8947165,76.3565362 38.9533309,76.3754732 39.2599294,76.4079366 L39.494387,76.4340876 C39.5403767,76.4791756 39.5340644,76.5973062 39.4817623,76.6225555 C39.1039249,76.6099308 38.8099511,76.6036185 38.5231914,76.6036185 C38.2364316,76.6036185 37.9298332,76.6099308 37.5123183,76.6225555 C37.4600162,76.5973062 37.4537039,76.466551 37.4996936,76.4340876 L37.772927,76.4007225 C38.0795254,76.3619468 38.1381398,76.3565362 38.1381398,75.6639845 L38.1381398,72.8468859" id="Fill-47" fill="#002D72" sketch:type="MSShapeGroup"></path>
                    <path d="M46.301774,72.8144226 C47.1187686,72.1768782 48.1593998,71.8639674 49.3226703,71.8639674 C49.9268495,71.8639674 50.7763076,71.9866068 51.3020337,72.1326919 C51.4363959,72.1660571 51.5148491,72.1886011 51.6158462,72.1768782 C51.6266673,72.4347816 51.6825765,73.1390562 51.7718507,73.8216886 C51.7159416,73.9001417 51.5482142,73.9109628 51.4697611,73.8442326 C51.3020337,73.0831471 50.7988516,72.2102433 49.1765851,72.2102433 C47.4650445,72.2102433 46.0114072,73.2959625 46.0114072,75.6116824 C46.0114072,77.9607674 47.4993114,79.2584002 49.3334914,79.2584002 C50.7763076,79.2584002 51.4138519,78.3187662 51.6717553,77.6586778 C51.7502085,77.6027687 51.9179358,77.6253127 51.9621221,77.7037658 C51.883669,78.2844993 51.5933022,79.0239426 51.4255748,79.2358562 C51.2912126,79.2584002 51.1568503,79.3025865 51.0342109,79.3476745 C50.7880304,79.4378505 49.9827587,79.6046761 49.2667612,79.6046761 C48.2594951,79.6046761 47.2973171,79.4044854 46.4812242,78.8553135 C45.5857764,78.2403131 44.8923229,77.2222259 44.8923229,75.7794098 C44.8923229,74.5376861 45.4514142,73.474511 46.301774,72.8144226" id="Fill-48" fill="#002D72" sketch:type="MSShapeGroup"></path>
                    <path d="M54.1732378,73.7206915 C54.1732378,72.5574209 54.1506938,72.3896936 53.4906054,72.3121422 L53.3120569,72.2886964 C53.2444249,72.2445102 53.2669689,72.0434177 53.334601,72.0100526 C53.8152391,72.0316948 54.1957818,72.0434177 54.653876,72.0434177 L56.7576823,72.0434177 C57.4736798,72.0434177 58.1337682,72.0434177 58.2681304,72.0100526 C58.3348607,72.1994222 58.4015909,73.004694 58.4466789,73.497055 C58.4015909,73.564687 58.2230424,73.587231 58.1671333,73.519599 C57.9994059,72.9938728 57.8984088,72.6025089 57.3167735,72.4573256 C57.0823159,72.4005147 56.7243172,72.3896936 56.2319561,72.3896936 L55.4266844,72.3896936 C55.0903279,72.3896936 55.0903279,72.4122376 55.0903279,72.8378683 L55.0903279,75.0742334 C55.0903279,75.3880459 55.1245947,75.3880459 55.4600495,75.3880459 L56.108415,75.3880459 C56.578232,75.3880459 56.9254097,75.3655019 57.0597719,75.3204139 C57.1941342,75.2762276 57.2725873,75.2085956 57.3284964,74.92905 L57.4177707,74.4709559 C57.4736798,74.4033239 57.6639512,74.4033239 57.7081374,74.481777 C57.7081374,74.7505015 57.6639512,75.1869534 57.6639512,75.6116824 C57.6639512,76.0147692 57.7081374,76.4394982 57.7081374,76.6856787 C57.6639512,76.7641318 57.4736798,76.7641318 57.4177707,76.6964998 L57.3167735,76.2600479 C57.2725873,76.0589554 57.1941342,75.891228 56.9704977,75.8353189 C56.8135914,75.7902309 56.5448669,75.7794098 56.108415,75.7794098 L55.4600495,75.7794098 C55.1245947,75.7794098 55.0903279,75.7902309 55.0903279,76.0814994 L55.0903279,77.6586778 C55.0903279,78.2511342 55.1245947,78.631677 55.3031432,78.8219483 C55.4375055,78.9563106 55.6719631,79.07895 56.6566851,79.07895 C57.517866,79.07895 57.8424997,79.0347637 58.0886802,78.9121243 C58.2897727,78.8003061 58.5918623,78.4080405 58.8831308,77.8264052 C58.961584,77.7704961 59.1175885,77.8038612 59.1626765,77.9048583 C59.0842233,78.2962222 58.8046777,79.1574031 58.6594943,79.4594927 C57.6522283,79.4378505 56.6566851,79.4261276 55.661142,79.4261276 L54.653876,79.4261276 C54.1732378,79.4261276 53.7926951,79.4378505 53.1326067,79.4594927 C53.0658764,79.4261276 53.0433324,79.2475791 53.1100627,79.1808489 L53.4797843,79.146582 C54.1173287,79.0906728 54.1732378,78.9229455 54.1732378,77.7488538 L54.1732378,73.7206915" id="Fill-49" fill="#002D72" sketch:type="MSShapeGroup"></path>
                    <path d="M67.5048591,77.5243156 C67.5048591,77.8606721 67.5048591,79.19167 67.5382242,79.4829385 C67.5156802,79.5496687 67.44895,79.6055779 67.3254089,79.6055779 C67.1910466,79.4153065 66.866413,79.0239426 65.8934138,77.9165812 L63.2981483,74.9624151 C62.9960586,74.6161392 62.2358749,73.6990492 62.0005155,73.4528687 L61.9788732,73.4528687 C61.9337852,73.587231 61.9229641,73.8442326 61.9229641,74.1796874 L61.9229641,76.6189484 C61.9229641,77.1446746 61.9337852,78.5983118 62.1240566,78.9337666 C62.1907869,79.0573077 62.4144234,79.124038 62.6948708,79.146582 L63.0411466,79.1808489 C63.1087786,79.2701231 63.0970558,79.4044854 63.0186026,79.4594927 C62.5154205,79.4378505 62.1240566,79.4261276 61.7101487,79.4261276 C61.2403317,79.4261276 60.9382421,79.4378505 60.5468782,79.4594927 C60.4684251,79.4044854 60.457604,79.2475791 60.5243342,79.1808489 L60.8264238,79.146582 C61.0834255,79.1132168 61.2628757,79.0455848 61.3187849,78.9229455 C61.4747893,78.5198587 61.4639682,77.1554957 61.4639682,76.6189484 L61.4639682,73.3852367 C61.4639682,73.072326 61.4531471,72.8378683 61.2177877,72.5808667 C61.0608815,72.4239604 60.7930587,72.3455073 60.5243342,72.3121422 L60.3340628,72.2886964 C60.2673326,72.2219662 60.2673326,72.0551406 60.3566068,72.0100526 C60.8264238,72.0434177 61.4188802,72.0434177 61.6208745,72.0434177 C61.799423,72.0434177 61.9896944,72.0316948 62.1348777,72.0100526 C62.3585142,72.5808667 63.678691,74.0561462 64.0484127,74.4709559 L65.1332301,75.6901355 C65.9051367,76.5513164 66.4525051,77.1780397 66.979133,77.7145869 L67.0007752,77.7145869 C67.0458632,77.6586778 67.0458632,77.4801293 67.0458632,77.2447699 L67.0458632,74.8505969 C67.0458632,74.3248707 67.0350421,72.8712335 66.8222267,72.5357787 C66.7545947,72.4347816 66.5760462,72.3671496 66.1287732,72.3121422 L65.9385018,72.2886964 C65.8600487,72.2219662 65.8708698,72.0434177 65.9610458,72.0100526 C66.4750491,72.0316948 66.8555918,72.0434177 67.2803209,72.0434177 C67.7618607,72.0434177 68.0522275,72.0316948 68.4327703,72.0100526 C68.5229463,72.0650599 68.5229463,72.2219662 68.4553143,72.2886964 L68.298408,72.3121422 C67.9404092,72.3671496 67.7167727,72.4573256 67.6725865,72.5465998 C67.4823151,72.9496866 67.5048591,74.3365936 67.5048591,74.8505969 L67.5048591,77.5243156" id="Fill-50" fill="#002D72" sketch:type="MSShapeGroup"></path>
                    <path d="M73.4853321,77.7488538 C73.4853321,78.9229455 73.5069743,79.0906728 74.1562416,79.146582 L74.5142404,79.1808489 C74.5809706,79.2250351 74.5584266,79.4261276 74.4916964,79.4594927 C73.854152,79.4378505 73.4736092,79.4261276 73.0263362,79.4261276 C72.5790632,79.4261276 72.1876993,79.4378505 71.4717018,79.4594927 C71.4040698,79.4261276 71.3815258,79.2358562 71.4717018,79.1808489 L71.8738868,79.146582 C72.5114312,79.0906728 72.5673403,78.9229455 72.5673403,77.7488538 L72.5673403,72.7476923 C72.5673403,72.4005147 72.5673403,72.3905953 72.2318855,72.3905953 L71.6168852,72.3905953 C71.136247,72.3905953 70.5203449,72.4122376 70.2407993,72.6692392 C69.9720747,72.9163215 69.8602565,73.1616002 69.7376171,73.4420476 C69.6483429,73.5087778 69.4914366,73.4528687 69.4463486,73.3635945 C69.6257989,72.8595106 69.7935262,72.1435131 69.8719794,71.6962401 C69.9053445,71.6745978 70.0505279,71.6628749 70.0847948,71.6962401 C70.151525,72.0551406 70.5203449,72.0434177 71.0352499,72.0434177 L75.5656926,72.0434177 C76.1698719,72.0434177 76.270869,72.0208737 76.4385964,71.7296052 C76.4945055,71.7079629 76.6171449,71.7187841 76.6396889,71.7629703 C76.5170495,72.2219662 76.4385964,73.1282351 76.4719615,73.4636898 C76.4268735,73.5538659 76.2366021,73.5538659 76.180693,73.4862338 C76.1473279,73.2066882 76.0688748,72.7927803 75.9011474,72.6692392 C75.6441458,72.4789678 75.218515,72.3905953 74.6035146,72.3905953 L73.809064,72.3905953 C73.4736092,72.3905953 73.4853321,72.4005147 73.4853321,72.7702363 L73.4853321,77.7488538" id="Fill-51" fill="#002D72" sketch:type="MSShapeGroup"></path>
                    <path d="M84.0756027,74.8505969 C84.0756027,74.1571434 84.0530587,72.8712335 83.8627873,72.5357787 C83.7843342,72.4005147 83.5832417,72.3229633 83.303696,72.3004193 L83.0241504,72.2778753 C82.9565184,72.2003239 82.9790624,72.0542388 83.0457926,72.0100526 C83.4714234,72.0316948 83.8853313,72.0434177 84.3217832,72.0434177 C84.7916002,72.0434177 85.0936898,72.0316948 85.4958748,72.0100526 C85.5860508,72.0650599 85.5743279,72.2102433 85.5184188,72.2778753 L85.2496943,72.3004193 C84.9701487,72.3229633 84.7582351,72.4239604 84.6906031,72.5691438 C84.5336968,72.9379637 84.5336968,74.2247754 84.5336968,74.8505969 L84.5336968,76.1148645 C84.5336968,77.0878637 84.3776923,78.1176737 83.750969,78.7885832 C83.2703309,79.3143094 82.4416134,79.6046761 81.6146994,79.6046761 C80.8427927,79.6046761 80.0708861,79.4594927 79.5226159,78.9905775 C78.9292578,78.4982165 78.6497122,77.6812218 78.6497122,76.3502239 L78.6497122,73.7098703 C78.6497122,72.5465998 78.6271682,72.3563284 77.9788026,72.3004193 L77.699257,72.2778753 C77.631625,72.2336891 77.654169,72.0434177 77.721801,72.0100526 C78.2808923,72.0316948 78.661435,72.0434177 79.108708,72.0434177 C79.5668022,72.0434177 79.9365238,72.0316948 80.484794,72.0100526 C80.5515242,72.0434177 80.5740682,72.2336891 80.5064362,72.2778753 L80.2386135,72.3004193 C79.5893462,72.3563284 79.5668022,72.5465998 79.5668022,73.7098703 L79.5668022,76.1265874 C79.5668022,77.9274023 80.1267952,79.1132168 81.8383359,79.1132168 C83.4597005,79.1132168 84.0756027,77.8381281 84.0756027,76.1374085 L84.0756027,74.8505969" id="Fill-52" fill="#002D72" sketch:type="MSShapeGroup"></path>
                    <path d="M88.5573503,75.3321368 C88.5573503,75.5332293 88.5573503,75.6558686 88.5916172,75.7009566 C88.6249824,75.7343218 88.7927097,75.7568658 89.3635239,75.7568658 C89.7657089,75.7568658 90.1913396,75.7126795 90.5150715,75.4655973 C90.8171612,75.2311396 91.0750645,74.8397757 91.0750645,74.0786902 C91.0750645,73.1949653 90.5267944,72.3563284 89.2850707,72.3563284 C88.5916172,72.3563284 88.5573503,72.4005147 88.5573503,72.7143272 L88.5573503,75.3321368 L88.5573503,75.3321368 Z M87.6402603,73.7324143 C87.6402603,72.6692392 87.6068952,72.4789678 87.1478993,72.4230587 L86.7899006,72.3788724 C86.7114474,72.3229633 86.7114474,72.1435131 86.8016234,72.0984251 C87.4274449,72.0434177 88.1993516,72.0091508 89.2958919,72.0091508 C89.9893454,72.0091508 90.6494338,72.0650599 91.1643388,72.3446056 C91.700886,72.6241512 92.0922499,73.1282351 92.0922499,73.9109628 C92.0922499,74.974138 91.253613,75.5557733 90.6945218,75.7794098 C90.6386127,75.84614 90.6945218,75.9579583 90.7504309,76.0481343 C91.6449769,77.4909504 92.2383351,78.3863982 92.9985188,79.0239426 C93.1887902,79.1907682 93.4683358,79.3143094 93.7704255,79.3359516 C93.8263346,79.3593974 93.8371557,79.4477698 93.7812466,79.4928579 C93.6811512,79.526223 93.501701,79.5496687 93.2897873,79.5496687 C92.3384304,79.5496687 91.7685181,79.2692213 90.9740674,78.1393159 C90.6827989,77.7254081 90.2247048,76.9544032 89.8775271,76.4503193 C89.7097998,76.2050405 89.5312513,76.0923205 89.0830765,76.0923205 C88.5798944,76.0923205 88.5573503,76.1031416 88.5573503,76.338501 L88.5573503,77.7488538 C88.5573503,78.9220437 88.5798944,79.0573077 89.2291616,79.1456802 L89.4636192,79.1808489 C89.5312513,79.2358562 89.5087073,79.4261276 89.4410752,79.4594927 C88.9378931,79.4378505 88.5573503,79.4261276 88.1100773,79.4261276 C87.6402603,79.4261276 87.2371736,79.4378505 86.7114474,79.4594927 C86.6447172,79.4261276 86.6221732,79.2584002 86.6889034,79.1808489 L86.9693508,79.1456802 C87.6177163,79.0690306 87.6402603,78.9220437 87.6402603,77.7488538 L87.6402603,73.7324143 L87.6402603,73.7324143 Z" id="Fill-53" fill="#002D72" sketch:type="MSShapeGroup"></path>
                    <path d="M97.0113513,77.7254081 C97.0113513,78.9220437 97.0789833,79.101494 97.6831625,79.1456802 L98.1078915,79.1799471 C98.1755235,79.2466773 98.1529795,79.4261276 98.0853475,79.4594927 C97.391894,79.4369487 97.0113513,79.4261276 96.5640783,79.4261276 C96.0942612,79.4261276 95.6920762,79.4369487 95.0987181,79.4594927 C95.0319878,79.4261276 95.0094438,79.2466773 95.0761741,79.1799471 L95.4233517,79.1456802 C96.0717172,79.07895 96.0942612,78.9220437 96.0942612,77.7254081 L96.0942612,77.1545939 C96.0942612,76.5404953 96.0608961,76.3935084 95.7362625,75.7676869 L94.4160857,73.1949653 C94.0355429,72.4564238 93.8678156,72.4005147 93.5323608,72.3446056 L93.2194501,72.2886964 C93.151818,72.2102433 93.1635409,72.0542388 93.2419941,72.0091508 C93.5999928,72.0316948 94.0021778,72.0425159 94.5396268,72.0425159 C95.0536301,72.0425159 95.4567169,72.0316948 95.7362625,72.0091508 C95.8372596,72.0425159 95.8372596,72.2210644 95.7696276,72.2886964 L95.6244442,72.3112404 C95.2330803,72.3671496 95.1546272,72.4230587 95.1546272,72.5123329 C95.1546272,72.6241512 95.4458957,73.2625973 95.5018049,73.3744156 C95.9157127,74.2022314 96.3296206,75.0850545 96.7660725,75.8578629 C97.1123484,75.2645048 97.4811683,74.6161392 97.8175248,73.966872 C98.1304355,73.3852367 98.5443434,72.6241512 98.5443434,72.4897889 C98.5443434,72.4230587 98.3432509,72.3446056 98.0745264,72.3112404 L97.8734339,72.2886964 C97.7949808,72.2102433 97.8058019,72.0542388 97.8950762,72.0091508 C98.2981629,72.0316948 98.6227966,72.0425159 98.9690724,72.0425159 C99.3162501,72.0425159 99.6291608,72.0316948 100.009704,72.0091508 C100.098978,72.0650599 100.110701,72.2210644 100.032248,72.2886964 L99.7184351,72.3446056 C99.1367998,72.4456027 98.8013451,73.1507791 98.2422538,74.1120554 L97.5370774,75.3321368 C97.0456181,76.1815948 97.0113513,76.2816901 97.0113513,77.1437728 L97.0113513,77.7254081" id="Fill-54" fill="#002D72" sketch:type="MSShapeGroup"></path>
                    <path d="M105.486994,72.8144226 C106.303087,72.1768782 107.343718,71.8639674 108.506989,71.8639674 C109.111168,71.8639674 109.960626,71.9866068 110.486352,72.1326919 C110.620715,72.1660571 110.699168,72.1886011 110.800165,72.1768782 C110.810986,72.4347816 110.866895,73.1390562 110.956169,73.8216886 C110.90026,73.9001417 110.732533,73.9109628 110.65408,73.8442326 C110.486352,73.0831471 109.98317,72.2102433 108.360904,72.2102433 C106.649363,72.2102433 105.195726,73.2959625 105.195726,75.6116824 C105.195726,77.9607674 106.68363,79.2584002 108.51781,79.2584002 C109.960626,79.2584002 110.598171,78.3187662 110.856074,77.6586778 C110.934527,77.6027687 111.102255,77.6253127 111.146441,77.7037658 C111.067988,78.2844993 110.777621,79.0239426 110.609894,79.2358562 C110.475531,79.2584002 110.341169,79.3025865 110.21853,79.3476745 C109.972349,79.4378505 109.167077,79.6046761 108.45108,79.6046761 C107.443814,79.6046761 106.481636,79.4044854 105.665543,78.8553135 C104.770095,78.2403131 104.076642,77.2222259 104.076642,75.7794098 C104.076642,74.5376861 104.635733,73.474511 105.486994,72.8144226" id="Fill-55" fill="#002D72" sketch:type="MSShapeGroup"></path>
                    <path d="M113.358458,73.7432355 C113.358458,72.5574209 113.335914,72.3671496 112.675826,72.3112404 L112.39628,72.2886964 C112.32955,72.2445102 112.351192,72.0425159 112.418824,72.0091508 C112.977916,72.0316948 113.358458,72.0425159 113.828275,72.0425159 C114.275548,72.0425159 114.656091,72.0316948 115.215182,72.0091508 C115.282814,72.0425159 115.305358,72.2445102 115.237726,72.2886964 L114.958181,72.3112404 C114.298092,72.3671496 114.275548,72.5574209 114.275548,73.7432355 L114.275548,77.7254081 C114.275548,78.9112226 114.298092,79.0681288 114.958181,79.1456802 L115.237726,79.1799471 C115.305358,79.2241333 115.282814,79.4261276 115.215182,79.4594927 C114.656091,79.4369487 114.275548,79.4261276 113.828275,79.4261276 C113.358458,79.4261276 112.977916,79.4369487 112.418824,79.4594927 C112.351192,79.4261276 112.32955,79.2475791 112.39628,79.1799471 L112.675826,79.1456802 C113.335914,79.0681288 113.358458,78.9112226 113.358458,77.7254081 L113.358458,73.7432355" id="Fill-56" fill="#002D72" sketch:type="MSShapeGroup"></path>
                    <path d="M120.381366,77.7488538 C120.381366,78.9229455 120.40391,79.0906728 121.053177,79.146582 L121.411176,79.1808489 C121.477906,79.2250351 121.455362,79.4261276 121.388632,79.4594927 C120.751088,79.4378505 120.370545,79.4261276 119.923272,79.4261276 C119.475999,79.4261276 119.083733,79.4378505 118.367736,79.4594927 C118.301005,79.4261276 118.278461,79.2358562 118.367736,79.1808489 L118.770822,79.146582 C119.408367,79.0906728 119.464276,78.9229455 119.464276,77.7488538 L119.464276,72.7476923 C119.464276,72.4005147 119.464276,72.3905953 119.128821,72.3905953 L118.513821,72.3905953 C118.032281,72.3905953 117.41728,72.4122376 117.137735,72.6692392 C116.86901,72.9163215 116.757192,73.1616002 116.633651,73.4420476 C116.544377,73.5087778 116.38747,73.4528687 116.343284,73.3635945 C116.521833,72.8595106 116.68956,72.1435131 116.768013,71.6962401 C116.801378,71.6745978 116.947463,71.6628749 116.980829,71.6962401 C117.047559,72.0551406 117.41728,72.0434177 117.932186,72.0434177 L122.462628,72.0434177 C123.066808,72.0434177 123.166903,72.0208737 123.33463,71.7296052 C123.390539,71.7079629 123.514081,71.7187841 123.536625,71.7629703 C123.413083,72.2219662 123.33463,73.1282351 123.368897,73.4636898 C123.323809,73.5538659 123.133538,73.5538659 123.077629,73.4862338 C123.044264,73.2066882 122.96581,72.7927803 122.798083,72.6692392 C122.541081,72.4789678 122.115451,72.3905953 121.50045,72.3905953 L120.706,72.3905953 C120.370545,72.3905953 120.381366,72.4005147 120.381366,72.7702363 L120.381366,77.7488538" id="Fill-57" fill="#002D72" sketch:type="MSShapeGroup"></path>
                    <path d="M125.63502,73.7432355 C125.63502,72.5574209 125.612476,72.3671496 124.952388,72.3112404 L124.672842,72.2886964 C124.606112,72.2445102 124.627754,72.0425159 124.695386,72.0091508 C125.254478,72.0316948 125.63502,72.0425159 126.104837,72.0425159 C126.55211,72.0425159 126.932653,72.0316948 127.491744,72.0091508 C127.559376,72.0425159 127.58192,72.2445102 127.514288,72.2886964 L127.234743,72.3112404 C126.574654,72.3671496 126.55211,72.5574209 126.55211,73.7432355 L126.55211,77.7254081 C126.55211,78.9112226 126.574654,79.0681288 127.234743,79.1456802 L127.514288,79.1799471 C127.58192,79.2241333 127.559376,79.4261276 127.491744,79.4594927 C126.932653,79.4369487 126.55211,79.4261276 126.104837,79.4261276 C125.63502,79.4261276 125.254478,79.4369487 124.695386,79.4594927 C124.627754,79.4261276 124.606112,79.2475791 124.672842,79.1799471 L124.952388,79.1456802 C125.612476,79.0681288 125.63502,78.9112226 125.63502,77.7254081 L125.63502,73.7432355" id="Fill-58" fill="#002D72" sketch:type="MSShapeGroup"></path>
                    <path d="M129.97429,73.7206915 C129.97429,72.5574209 129.951746,72.3896936 129.291657,72.3121422 L129.113109,72.2886964 C129.045477,72.2445102 129.068021,72.0434177 129.135653,72.0100526 C129.616291,72.0316948 129.996834,72.0434177 130.454928,72.0434177 L132.558734,72.0434177 C133.274732,72.0434177 133.93482,72.0434177 134.069182,72.0100526 C134.135913,72.1994222 134.202643,73.004694 134.247731,73.497055 C134.202643,73.564687 134.024094,73.587231 133.968185,73.519599 C133.800458,72.9938728 133.699461,72.6025089 133.117826,72.4573256 C132.883368,72.4005147 132.525369,72.3896936 132.033008,72.3896936 L131.227736,72.3896936 C130.89138,72.3896936 130.89138,72.4122376 130.89138,72.8378683 L130.89138,75.0742334 C130.89138,75.3880459 130.925647,75.3880459 131.261102,75.3880459 L131.909467,75.3880459 C132.379284,75.3880459 132.726462,75.3655019 132.860824,75.3204139 C132.995186,75.2762276 133.073639,75.2085956 133.129548,74.92905 L133.218823,74.4709559 C133.274732,74.4033239 133.465003,74.4033239 133.509189,74.481777 C133.509189,74.7505015 133.465003,75.1869534 133.465003,75.6116824 C133.465003,76.0147692 133.509189,76.4394982 133.509189,76.6856787 C133.465003,76.7641318 133.274732,76.7641318 133.218823,76.6964998 L133.117826,76.2600479 C133.073639,76.0589554 132.995186,75.891228 132.77155,75.8353189 C132.614643,75.7902309 132.345919,75.7794098 131.909467,75.7794098 L131.261102,75.7794098 C130.925647,75.7794098 130.89138,75.7902309 130.89138,76.0814994 L130.89138,77.6586778 C130.89138,78.2511342 130.925647,78.631677 131.104195,78.8219483 C131.238558,78.9563106 131.473015,79.07895 132.457737,79.07895 C133.318918,79.07895 133.643552,79.0347637 133.889732,78.9121243 C134.090825,78.8003061 134.392914,78.4080405 134.684183,77.8264052 C134.762636,77.7704961 134.91864,77.8038612 134.963728,77.9048583 C134.885275,78.2962222 134.60573,79.1574031 134.460546,79.4594927 C133.45328,79.4378505 132.457737,79.4261276 131.462194,79.4261276 L130.454928,79.4261276 C129.97429,79.4261276 129.593747,79.4378505 128.933659,79.4594927 C128.866928,79.4261276 128.844384,79.2475791 128.911115,79.1808489 L129.280836,79.146582 C129.918381,79.0906728 129.97429,78.9229455 129.97429,77.7488538 L129.97429,73.7206915" id="Fill-59" fill="#002D72" sketch:type="MSShapeGroup"></path>
                    <path d="M137.914288,79.6046761 C136.973752,79.6046761 136.380394,79.3143094 136.16848,79.1907682 C136.034118,78.9454895 135.888934,78.1510388 135.867292,77.6253127 C135.922299,77.5468596 136.090929,77.5234138 136.134213,77.5919476 C136.302842,78.1618599 136.760936,79.2574985 138.059471,79.2574985 C138.998203,79.2574985 139.457199,78.6433998 139.457199,77.9715886 C139.457199,77.4801293 139.356202,76.9309574 138.540109,76.4052313 L137.476934,75.7126795 C136.918744,75.3420561 136.269477,74.7045117 136.269477,73.7883235 C136.269477,72.7251483 137.097293,71.8639674 138.55093,71.8639674 C138.89901,71.8639674 139.301195,71.9306977 139.591561,72.0091508 C139.736745,72.0542388 139.894553,72.0758811 139.983827,72.0758811 C140.084824,72.3446056 140.184018,72.9713288 140.184018,73.4411458 C140.140733,73.5078761 139.960381,73.5412412 139.904472,73.474511 C139.76019,72.9370619 139.457199,72.2102433 138.384105,72.2102433 C137.286662,72.2102433 137.053107,72.9370619 137.053107,73.4528687 C137.053107,74.1003325 137.589654,74.5710512 138.003562,74.8280529 L138.89901,75.3871441 C139.602382,75.8244978 140.296738,76.4719615 140.296738,77.5351367 C140.296738,78.7660392 139.367925,79.6046761 137.914288,79.6046761" id="Fill-60" fill="#002D72" sketch:type="MSShapeGroup"></path>
                    <path d="M50.6221066,85.9079792 C50.6221066,84.7221647 50.5995626,84.5318933 49.9394742,84.4759841 L49.6599286,84.4534401 C49.5931983,84.4092539 49.6148405,84.2072596 49.6824726,84.1738945 C50.2415638,84.1964385 50.6221066,84.2072596 51.0919236,84.2072596 C51.5391966,84.2072596 51.9197394,84.1964385 52.4788306,84.1738945 C52.5464626,84.2072596 52.5690066,84.4092539 52.5013746,84.4534401 L52.221829,84.4759841 C51.5617406,84.5318933 51.5391966,84.7221647 51.5391966,85.9079792 L51.5391966,89.8901518 C51.5391966,91.0759663 51.5617406,91.2319708 52.221829,91.3104239 L52.5013746,91.3446908 C52.5690066,91.3888771 52.5464626,91.5908713 52.4788306,91.6242364 C51.9197394,91.6016924 51.5391966,91.5908713 51.0919236,91.5908713 C50.6221066,91.5908713 50.2415638,91.6016924 49.6824726,91.6242364 C49.6148405,91.5908713 49.5931983,91.4123228 49.6599286,91.3446908 L49.9394742,91.3104239 C50.5995626,91.2319708 50.6221066,91.0759663 50.6221066,89.8901518 L50.6221066,85.9079792" id="Fill-61" fill="#002D72" sketch:type="MSShapeGroup"></path>
                    <path d="M60.9797231,89.6881575 C60.9797231,90.024514 60.9797231,91.3555119 61.0130882,91.6467804 C60.9905442,91.7135107 60.9238139,91.7694198 60.8002728,91.7694198 C60.6659105,91.5791484 60.3412769,91.1877846 59.3682778,90.0804232 L56.7730122,87.1262571 C56.4709226,86.7799812 55.7107388,85.8628912 55.4753794,85.6167107 L55.4537372,85.6167107 C55.4086492,85.7510729 55.3978281,86.0080746 55.3978281,86.3435293 L55.3978281,88.7827904 C55.3978281,89.3085165 55.4086492,90.7621538 55.5989206,91.0976085 C55.6656508,91.2211497 55.8892873,91.2878799 56.1697347,91.3104239 L56.5160106,91.3446908 C56.5836426,91.4339651 56.5719197,91.5683273 56.4934666,91.6233347 C55.9902844,91.6016924 55.5989206,91.5899696 55.1850127,91.5899696 C54.7151957,91.5899696 54.413106,91.6016924 54.0217421,91.6233347 C53.943289,91.5683273 53.9324679,91.4114211 53.9991981,91.3446908 L54.3012878,91.3104239 C54.5582894,91.2770588 54.7377397,91.2094268 54.7936488,91.0867874 C54.9496533,90.6837007 54.9388322,89.3193376 54.9388322,88.7827904 L54.9388322,85.5490787 C54.9388322,85.2361679 54.928011,85.0017103 54.6926517,84.7447087 C54.5357454,84.5878024 54.2679227,84.5093493 53.9991981,84.4759841 L53.8089268,84.4525384 C53.7421965,84.3858081 53.7421965,84.2189825 53.8314708,84.1738945 C54.3012878,84.2072596 54.8937442,84.2072596 55.0957384,84.2072596 C55.2742869,84.2072596 55.4645583,84.1955368 55.6097417,84.1738945 C55.8333782,84.7447087 57.153555,86.2208899 57.5232766,86.6347978 L58.608094,87.8539775 C59.3800006,88.7151584 59.927369,89.3418816 60.4539969,89.8784289 L60.4756392,89.8784289 C60.5207272,89.8225198 60.5207272,89.6439713 60.5207272,89.4086119 L60.5207272,87.0144388 C60.5207272,86.4887127 60.509906,85.0350754 60.2970907,84.6996207 C60.2294587,84.5986235 60.0509102,84.5309915 59.6036371,84.4759841 L59.4133658,84.4525384 C59.3349126,84.3858081 59.3457338,84.2072596 59.4359098,84.1738945 C59.949913,84.1955368 60.3304558,84.2072596 60.7551848,84.2072596 C61.2367247,84.2072596 61.5270914,84.1955368 61.9076342,84.1738945 C61.9978102,84.2289019 61.9978102,84.3858081 61.9301782,84.4525384 L61.7732719,84.4759841 C61.4152732,84.5309915 61.1916367,84.6211675 61.1474504,84.7104418 C60.9571791,85.1135285 60.9797231,86.5004356 60.9797231,87.0144388 L60.9797231,89.6881575" id="Fill-62" fill="#002D72" sketch:type="MSShapeGroup"></path>
                    <path d="M64.2747544,85.9079792 C64.2747544,84.7221647 64.2522104,84.5318933 63.5921221,84.4759841 L63.3125764,84.4534401 C63.2458462,84.4092539 63.2674884,84.2072596 63.3351204,84.1738945 C63.8942117,84.1964385 64.2747544,84.2072596 64.7445715,84.2072596 C65.1918445,84.2072596 65.5723872,84.1964385 66.1314785,84.1738945 C66.1991105,84.2072596 66.2216545,84.4092539 66.1540225,84.4534401 L65.8744769,84.4759841 C65.2143885,84.5318933 65.1918445,84.7221647 65.1918445,85.9079792 L65.1918445,89.8901518 C65.1918445,91.0759663 65.2143885,91.2319708 65.8744769,91.3104239 L66.1540225,91.3446908 C66.2216545,91.3888771 66.1991105,91.5908713 66.1314785,91.6242364 C65.5723872,91.6016924 65.1918445,91.5908713 64.7445715,91.5908713 C64.2747544,91.5908713 63.8942117,91.6016924 63.3351204,91.6242364 C63.2674884,91.5908713 63.2458462,91.4123228 63.3125764,91.3446908 L63.5921221,91.3104239 C64.2522104,91.2319708 64.2747544,91.0759663 64.2747544,89.8901518 L64.2747544,85.9079792" id="Fill-63" fill="#002D72" sketch:type="MSShapeGroup"></path>
                    <path d="M71.0740256,89.9126958 C71.0740256,91.0867874 71.0965696,91.2545148 71.7458369,91.3104239 L72.1038356,91.3446908 C72.1705659,91.3888771 72.1480219,91.5899696 72.0812916,91.6233347 C71.4437472,91.6016924 71.0632045,91.5899696 70.6159315,91.5899696 C70.1686584,91.5899696 69.7763928,91.6016924 69.0603953,91.6233347 C68.993665,91.5899696 68.971121,91.3996982 69.0603953,91.3446908 L69.463482,91.3104239 C70.1010264,91.2545148 70.1569356,91.0867874 70.1569356,89.9126958 L70.1569356,84.9115343 C70.1569356,84.5643566 70.1569356,84.5544373 69.8214808,84.5544373 L69.2064804,84.5544373 C68.7249405,84.5544373 68.1099401,84.5760795 67.8303945,84.8330811 C67.56167,85.0801634 67.4498518,85.3254422 67.3263106,85.6058895 C67.2370364,85.6726198 67.0801301,85.6167107 67.0359439,85.5274364 C67.2144924,85.0233525 67.3822197,84.307355 67.4606729,83.860082 C67.494038,83.8384398 67.6401231,83.8267169 67.6734883,83.860082 C67.7402185,84.2189825 68.1099401,84.2072596 68.6248452,84.2072596 L73.1552879,84.2072596 C73.7594672,84.2072596 73.8595625,84.1847156 74.0272899,83.8934471 C74.083199,83.8718049 74.2067402,83.882626 74.2292842,83.9268122 C74.105743,84.3858081 74.0272899,85.292077 74.0615568,85.6275318 C74.0164688,85.7177078 73.8261974,85.7177078 73.7702883,85.6500758 C73.7369232,85.3705302 73.65847,84.9566223 73.4907426,84.8330811 C73.233741,84.6428098 72.8081102,84.5544373 72.1931099,84.5544373 L71.3986592,84.5544373 C71.0632045,84.5544373 71.0740256,84.5643566 71.0740256,84.9340783 L71.0740256,89.9126958" id="Fill-64" fill="#002D72" sketch:type="MSShapeGroup"></path>
                    <path d="M76.3285817,85.9079792 C76.3285817,84.7221647 76.3060377,84.5318933 75.6459493,84.4759841 L75.3664036,84.4534401 C75.2996734,84.4092539 75.3213156,84.2072596 75.3889476,84.1738945 C75.9480389,84.1964385 76.3285817,84.2072596 76.7983987,84.2072596 C77.2456717,84.2072596 77.6262144,84.1964385 78.1853057,84.1738945 C78.2529377,84.2072596 78.2754817,84.4092539 78.2078497,84.4534401 L77.9283041,84.4759841 C77.2682157,84.5318933 77.2456717,84.7221647 77.2456717,85.9079792 L77.2456717,89.8901518 C77.2456717,91.0759663 77.2682157,91.2319708 77.9283041,91.3104239 L78.2078497,91.3446908 C78.2754817,91.3888771 78.2529377,91.5908713 78.1853057,91.6242364 C77.6262144,91.6016924 77.2456717,91.5908713 76.7983987,91.5908713 C76.3285817,91.5908713 75.9480389,91.6016924 75.3889476,91.6242364 C75.3213156,91.5908713 75.2996734,91.4123228 75.3664036,91.3446908 L75.6459493,91.3104239 C76.3060377,91.2319708 76.3285817,91.0759663 76.3285817,89.8901518 L76.3285817,85.9079792" id="Fill-65" fill="#002D72" sketch:type="MSShapeGroup"></path>
                    <path d="M81.7968549,87.9991608 C81.7075806,88.2561625 81.7184018,88.2678854 82.0313125,88.2678854 L83.4073984,88.2678854 C83.7320321,88.2678854 83.7545761,88.2227974 83.6535789,87.9207077 L83.0493997,86.0982506 C82.9601254,85.8295261 82.8591283,85.5274364 82.792398,85.3921724 L82.769854,85.3921724 C82.7364889,85.4489833 82.6246707,85.7177078 82.5020313,86.0531626 L81.7968549,87.9991608 L81.7968549,87.9991608 Z M84.0115777,88.994704 C83.9340263,88.7485235 83.8889383,88.7151584 83.5534836,88.7151584 L81.8635851,88.7151584 C81.5840395,88.7151584 81.5173093,88.7485235 81.4388561,88.9838829 L81.0474923,90.1588763 C80.8797649,90.6620584 80.8013118,90.964148 80.8013118,91.0867874 C80.8013118,91.2211497 80.8572209,91.2878799 81.1259454,91.3104239 L81.4947653,91.3446908 C81.5732184,91.3996982 81.5732184,91.5791484 81.4722213,91.6242364 C81.1818545,91.6016924 80.8346769,91.6016924 80.3089507,91.5899696 C79.9392291,91.5899696 79.5370441,91.6125136 79.2349545,91.6242364 C79.1673225,91.5791484 79.1456802,91.3996982 79.2124105,91.3446908 L79.5812303,91.3104239 C79.8499548,91.2878799 80.0961354,91.1652405 80.2530416,90.7621538 C80.4541341,90.2481505 80.7679466,89.5204301 81.2377636,88.2678854 L82.3784902,85.246989 C82.5353964,84.844804 82.6021267,84.6328904 82.5687615,84.4525384 C82.8374861,84.3740853 83.0277574,84.1738945 83.1503968,84.0287111 C83.2180288,84.0287111 83.2955802,84.0503534 83.3181242,84.1288065 C83.4633076,84.6211675 83.6427578,85.1351708 83.8104852,85.6275318 L85.3434774,90.1246094 C85.6672092,91.0867874 85.8132944,91.2545148 86.2939325,91.3104239 L86.5960221,91.3446908 C86.6744753,91.3996982 86.6519313,91.5791484 86.5960221,91.6242364 C86.1370262,91.6016924 85.7456624,91.5899696 85.2424802,91.5899696 C84.705933,91.5899696 84.2803022,91.6125136 83.9556686,91.6242364 C83.8663943,91.5791484 83.8555732,91.3996982 83.9340263,91.3446908 L84.2577582,91.3104239 C84.4931176,91.2878799 84.6500238,91.2211497 84.6500238,91.1093314 C84.6500238,90.986692 84.593213,90.7846978 84.5039387,90.516875 L84.0115777,88.994704 L84.0115777,88.994704 Z" id="Fill-66" fill="#002D72" sketch:type="MSShapeGroup"></path>
                    <path d="M90.3184878,89.9126958 C90.3184878,91.0867874 90.3410318,91.2545148 90.9902991,91.3104239 L91.3482978,91.3446908 C91.4150281,91.3888771 91.3924841,91.5899696 91.3257538,91.6233347 C90.6882095,91.6016924 90.3076667,91.5899696 89.8603937,91.5899696 C89.4131207,91.5899696 89.020855,91.6016924 88.3048575,91.6233347 C88.2381273,91.5899696 88.2155833,91.3996982 88.3048575,91.3446908 L88.7079443,91.3104239 C89.3454887,91.2545148 89.4013978,91.0867874 89.4013978,89.9126958 L89.4013978,84.9115343 C89.4013978,84.5643566 89.4013978,84.5544373 89.065943,84.5544373 L88.4509427,84.5544373 C87.9694028,84.5544373 87.3544024,84.5760795 87.0748567,84.8330811 C86.8061322,85.0801634 86.694314,85.3254422 86.5707729,85.6058895 C86.4814986,85.6726198 86.3245923,85.6167107 86.2804061,85.5274364 C86.4589546,85.0233525 86.626682,84.307355 86.7051351,83.860082 C86.7385002,83.8384398 86.8845854,83.8267169 86.9179505,83.860082 C86.9846807,84.2189825 87.3544024,84.2072596 87.8693074,84.2072596 L92.3997501,84.2072596 C93.0039294,84.2072596 93.1040248,84.1847156 93.2717521,83.8934471 C93.3276613,83.8718049 93.4512024,83.882626 93.4737464,83.9268122 C93.3502053,84.3858081 93.2717521,85.292077 93.306019,85.6275318 C93.260931,85.7177078 93.0706596,85.7177078 93.0147505,85.6500758 C92.9813854,85.3705302 92.9029323,84.9566223 92.7352049,84.8330811 C92.4782033,84.6428098 92.0525725,84.5544373 91.4375721,84.5544373 L90.6431215,84.5544373 C90.3076667,84.5544373 90.3184878,84.5643566 90.3184878,84.9340783 L90.3184878,89.9126958" id="Fill-67" fill="#002D72" sketch:type="MSShapeGroup"></path>
                    <path d="M95.5730439,85.9079792 C95.5730439,84.7221647 95.5504999,84.5318933 94.8904115,84.4759841 L94.6108659,84.4534401 C94.5441356,84.4092539 94.5657779,84.2072596 94.6334099,84.1738945 C95.1925011,84.1964385 95.5730439,84.2072596 96.0428609,84.2072596 C96.4901339,84.2072596 96.8706767,84.1964385 97.4297679,84.1738945 C97.4974,84.2072596 97.519944,84.4092539 97.4523119,84.4534401 L97.1727663,84.4759841 C96.5126779,84.5318933 96.4901339,84.7221647 96.4901339,85.9079792 L96.4901339,89.8901518 C96.4901339,91.0759663 96.5126779,91.2319708 97.1727663,91.3104239 L97.4523119,91.3446908 C97.519944,91.3888771 97.4974,91.5908713 97.4297679,91.6242364 C96.8706767,91.6016924 96.4901339,91.5908713 96.0428609,91.5908713 C95.5730439,91.5908713 95.1925011,91.6016924 94.6334099,91.6242364 C94.5657779,91.5908713 94.5441356,91.4123228 94.6108659,91.3446908 L94.8904115,91.3104239 C95.5504999,91.2319708 95.5730439,91.0759663 95.5730439,89.8901518 L95.5730439,85.9079792" id="Fill-68" fill="#002D72" sketch:type="MSShapeGroup"></path>
                    <path d="M99.598501,85.3921724 C99.3405976,84.7663509 99.1728702,84.5309915 98.6922321,84.4750824 L98.4902378,84.4525384 C98.4126865,84.3858081 98.4235076,84.2289019 98.5127818,84.1729928 C98.8374155,84.1955368 99.1954142,84.2072596 99.6760523,84.2072596 C100.168413,84.2072596 100.560679,84.1955368 101.030496,84.1729928 C101.108047,84.2180808 101.130591,84.3858081 101.052138,84.4525384 L100.884411,84.4750824 C100.459682,84.5309915 100.370408,84.5986235 100.358685,84.6878978 C100.381229,84.799716 100.5715,85.4038953 100.918678,86.2542551 C101.432681,87.5518878 101.947586,88.8377977 102.506677,90.1128865 C102.853855,89.3752468 103.323672,88.2227974 103.580674,87.6294392 C103.905307,86.8692554 104.431033,85.6049878 104.621305,85.1243497 C104.710579,84.8889903 104.722302,84.7663509 104.722302,84.6878978 C104.722302,84.6094446 104.610484,84.5201704 104.218218,84.4750824 L104.017125,84.4525384 C103.938672,84.3858081 103.961216,84.2180808 104.039669,84.1729928 C104.35258,84.1955368 104.778211,84.2072596 105.20294,84.2072596 C105.572662,84.2072596 105.918937,84.1955368 106.287757,84.1729928 C106.366211,84.2180808 106.366211,84.3966293 106.310301,84.4525384 L105.974847,84.4750824 C105.706122,84.4976264 105.538395,84.6319886 105.393211,84.8664463 C105.080301,85.3921724 104.643849,86.2984413 104.140667,87.4400696 L103.536487,88.8161555 C103.088313,89.844162 102.562586,91.1426965 102.372315,91.7351529 C102.33895,91.7585987 102.294764,91.7685181 102.249676,91.7685181 C102.193767,91.7685181 102.137857,91.7585987 102.081948,91.7351529 C101.958407,91.2662377 101.757315,90.7170658 101.567043,90.2481505 L99.598501,85.3921724" id="Fill-69" fill="#002D72" sketch:type="MSShapeGroup"></path>
                    <path d="M108.029958,85.8845334 C108.029958,84.7212629 108.007414,84.5535355 107.347325,84.4759841 L107.168777,84.4525384 C107.101145,84.4083521 107.123689,84.2072596 107.191321,84.1738945 C107.671959,84.1955368 108.052502,84.2072596 108.510596,84.2072596 L110.614402,84.2072596 C111.3304,84.2072596 111.990488,84.2072596 112.12485,84.1738945 C112.191581,84.3632641 112.258311,85.1685359 112.303399,85.6608969 C112.258311,85.7285289 112.079762,85.7510729 112.023853,85.6834409 C111.856126,85.1577148 111.755129,84.7663509 111.173494,84.6211675 C110.939036,84.5643566 110.581037,84.5535355 110.088676,84.5535355 L109.283404,84.5535355 C108.947048,84.5535355 108.947048,84.5760795 108.947048,85.0017103 L108.947048,87.2380753 C108.947048,87.5518878 108.981315,87.5518878 109.31677,87.5518878 L109.965135,87.5518878 C110.434952,87.5518878 110.78213,87.5293438 110.916492,87.4842558 C111.050854,87.4400696 111.129307,87.3724376 111.185216,87.092892 L111.274491,86.6347978 C111.3304,86.5671658 111.520671,86.5671658 111.564857,86.6456189 C111.564857,86.9143435 111.520671,87.3507953 111.520671,87.7755243 C111.520671,88.1786111 111.564857,88.6033401 111.564857,88.8495206 C111.520671,88.9279737 111.3304,88.9279737 111.274491,88.8603417 L111.173494,88.4238899 C111.129307,88.2227974 111.050854,88.05507 110.827218,87.9991608 C110.670311,87.9540728 110.401587,87.9432517 109.965135,87.9432517 L109.31677,87.9432517 C108.981315,87.9432517 108.947048,87.9540728 108.947048,88.2453414 L108.947048,89.8225198 C108.947048,90.4149761 108.981315,90.7955189 109.159863,90.9857903 C109.294226,91.1201525 109.528683,91.2427919 110.513405,91.2427919 C111.374586,91.2427919 111.69922,91.1986057 111.9454,91.0759663 C112.146493,90.964148 112.448582,90.5718824 112.739851,89.9902471 C112.818304,89.934338 112.974309,89.9677031 113.019397,90.0687003 C112.940943,90.4600642 112.661398,91.321245 112.516214,91.6233347 C111.508948,91.6016924 110.513405,91.5899696 109.517862,91.5899696 L108.510596,91.5899696 C108.029958,91.5899696 107.649415,91.6016924 106.989327,91.6233347 C106.922596,91.5899696 106.900052,91.4114211 106.966783,91.3446908 L107.336504,91.3104239 C107.974049,91.2545148 108.029958,91.0867874 108.029958,89.9126958 L108.029958,85.8845334" id="Fill-70" fill="#002D72" sketch:type="MSShapeGroup"></path>
                </g>
            </g>
        </g>
    </g>
</svg>